<svg version="1.1" id="Layer_1" xmlns="http://www.w3.org/2000/svg" xmlns:xlink="http://www.w3.org/1999/xlink" x="0px" y="0px"
	 width="100%" viewBox="0 0 1200 1200" enable-background="new 0 0 1200 1200" xml:space="preserve">
<path fill="#000000" opacity="1.000000" stroke="none" 
	d="
M831.000000,1201.000000 
	C554.000000,1201.000000 277.500000,1201.000000 1.000000,1201.000000 
	C1.000000,801.000000 1.000000,401.000000 1.000000,1.000000 
	C401.000000,1.000000 801.000000,1.000000 1201.000000,1.000000 
	C1201.000000,401.000000 1201.000000,801.000000 1201.000000,1201.000000 
	C1077.833374,1201.000000 954.666687,1201.000000 831.000000,1201.000000 
M601.067932,98.643692 
	C600.838379,98.600121 600.608765,98.556541 600.379211,98.512962 
	C600.597168,98.668999 600.815125,98.825035 601.005920,99.920410 
	C601.003967,114.907829 601.014709,129.895264 600.997498,144.882660 
	C600.957642,179.518677 600.904175,214.154694 600.178345,248.989639 
	C511.841614,298.058136 423.497070,347.112640 335.202301,396.256470 
	C332.292236,397.876221 330.166077,398.117065 327.058624,396.469696 
	C283.459045,373.356079 239.772583,350.406219 196.079422,327.469574 
	C193.721786,326.231964 191.118164,325.462891 188.346573,324.363678 
	C188.346573,477.175354 188.346573,629.021118 188.346573,781.841797 
	C237.459839,754.747070 285.895905,728.025940 333.197540,701.930664 
	C332.308258,698.521057 331.084961,696.014282 331.082428,693.506287 
	C330.985535,596.851135 331.000275,500.195953 331.000275,403.540771 
	C331.000275,402.121002 331.000305,400.701233 331.000305,398.716614 
	C333.000977,399.798676 334.423584,400.549774 335.829498,401.331055 
	C386.571167,429.527313 437.301056,457.744812 488.054962,485.919128 
	C525.607422,506.765076 563.190857,527.555298 600.877502,549.253235 
	C600.918335,551.249878 600.994812,553.246460 600.994934,555.243103 
	C601.000793,651.213562 601.000000,747.184082 601.000000,843.154541 
	C601.000000,844.892212 601.000000,846.629944 601.000000,848.814880 
	C602.497192,848.133179 603.408508,847.789612 604.252075,847.323547 
	C619.005005,839.172729 633.760315,831.025879 648.493835,822.840088 
	C672.389221,809.563904 696.263184,796.249146 720.157227,782.970520 
	C747.340881,767.863831 774.541382,752.787415 801.725830,737.682129 
	C822.903625,725.914490 844.035461,714.063416 865.266235,702.392334 
	C869.446594,700.094299 871.127136,697.272705 871.118835,692.285767 
	C870.958435,595.982300 871.005798,499.678528 870.972229,403.374817 
	C870.971252,400.442474 871.144897,398.305267 874.401184,396.608795 
	C913.363953,376.309937 952.216187,355.798828 991.093262,335.335419 
	C998.401489,331.488647 1005.691833,327.607971 1013.469971,323.488922 
	C1012.393250,322.743591 1011.908569,322.338959 1011.365173,322.041809 
	C979.017151,304.356476 946.671692,286.666473 914.309753,269.006592 
	C883.405640,252.142227 852.476074,235.324280 821.571899,218.460098 
	C786.147339,199.129227 750.741638,179.763657 715.321411,160.424881 
	C683.982971,143.314682 652.660400,126.175346 621.272766,109.155731 
	C614.624146,105.550568 607.724121,102.408806 601.067932,98.643692 
M622.065552,915.500427 
	C622.065552,909.407898 622.065552,903.315430 622.065552,897.342834 
	C612.597656,897.342834 603.875122,897.342834 595.194702,897.342834 
	C595.194702,935.013733 595.194702,972.275085 595.194702,1010.066284 
	C599.725159,1010.066284 604.011414,1010.066223 608.297668,1010.066223 
	C612.745911,1010.066223 617.194153,1010.066284 622.100830,1010.066284 
	C622.100830,1006.316772 622.100830,1003.136719 622.100830,999.408325 
	C629.231018,1008.094482 630.814270,1009.040710 641.102295,1011.177734 
	C654.955505,1014.055237 667.147217,1006.077209 672.635132,996.890442 
	C676.729858,990.035706 678.501343,982.640808 679.341431,974.588013 
	C680.582153,962.694458 678.701172,951.902893 673.248291,941.347046 
	C668.222351,931.617737 654.930115,923.367126 640.451355,925.718384 
	C632.465637,927.015137 627.342590,931.679199 622.065674,937.559570 
	C622.065674,930.121155 622.065674,923.310669 622.065552,915.500427 
M228.418747,974.900085 
	C235.053452,995.643677 248.993469,1007.495789 270.627106,1011.177124 
	C291.409424,1014.713562 315.710693,1005.900635 324.953186,986.398132 
	C327.450256,981.129089 328.888367,975.358276 331.096527,969.000000 
	C323.622314,969.000000 317.811523,969.110535 312.006989,968.968201 
	C306.443024,968.831726 300.560486,967.873047 299.966431,976.069092 
	C299.944580,976.370605 299.677551,976.657043 299.515503,976.945251 
	C291.542114,991.125977 267.154785,991.062195 259.072968,975.659973 
	C251.528839,961.282593 251.536880,946.210266 259.198181,931.730835 
	C264.252106,922.179138 273.148834,918.896973 283.425323,920.116028 
	C292.187683,921.155457 298.392212,926.000244 301.133362,934.803467 
	C301.523895,936.057739 303.089111,937.820251 304.154968,937.851807 
	C312.619110,938.102600 321.093994,937.991455 330.069153,937.991455 
	C328.800934,927.707947 325.452942,918.760010 318.839600,911.457642 
	C304.998322,896.174316 286.805786,892.837708 267.845703,896.358887 
	C240.987793,901.346680 226.728271,922.635681 226.141891,948.058533 
	C225.941803,956.733093 227.387314,965.445679 228.418747,974.900085 
M907.000122,943.472534 
	C907.000122,928.062439 907.000122,912.652283 907.000122,897.264893 
	C897.655701,897.264893 889.062195,897.264893 880.311890,897.264893 
	C880.311890,934.893799 880.311890,972.257263 880.311890,1009.621338 
	C889.341187,1009.621338 898.053528,1009.621338 907.000244,1009.621338 
	C907.000244,1002.595764 907.156250,995.941650 906.944153,989.299316 
	C906.807251,985.010620 908.520996,982.102417 912.244446,979.903870 
	C917.905701,988.716248 923.372375,997.414856 929.082092,1005.950806 
	C930.200684,1007.623108 932.218140,1009.752319 933.894104,1009.818481 
	C943.338806,1010.191284 952.805908,1009.998352 963.276489,1009.998352 
	C952.668823,994.042297 942.488281,978.728760 932.280823,963.374756 
	C942.126282,951.467529 951.949036,939.587646 962.357056,927.000000 
	C953.512817,927.000000 945.962708,927.571045 938.543823,926.829529 
	C931.933899,926.168945 928.440002,929.316162 924.895691,934.040466 
	C919.403320,941.361450 913.374756,948.280151 907.000122,956.070190 
	C907.000122,951.450928 907.000122,947.954468 907.000122,943.472534 
M436.000305,952.500000 
	C436.000305,971.584778 436.000305,990.669495 436.000305,1009.729065 
	C445.349579,1009.729065 453.946808,1009.729065 463.000000,1009.729065 
	C463.000000,1004.176392 462.897186,998.880737 463.021240,993.590393 
	C463.285400,982.323608 463.469757,971.049133 464.066895,959.797974 
	C464.502716,951.585571 472.549469,946.467896 480.276123,948.621704 
	C486.684143,950.407959 489.750763,955.786194 489.935364,962.848694 
	C490.192169,972.674622 490.000000,982.512329 490.000000,992.344971 
	C490.000031,998.113525 490.000000,1003.882019 490.000000,1009.606323 
	C499.363647,1009.606323 508.080353,1009.606323 517.000000,1009.606323 
	C517.000000,991.724121 517.199158,974.230957 516.869690,956.747742 
	C516.779541,951.965210 515.296326,947.164429 514.120789,942.454773 
	C509.558380,924.175415 480.023804,919.690796 468.682220,932.807800 
	C466.705719,935.093689 464.664795,937.323853 461.754852,940.587708 
	C461.754852,935.234253 461.754852,931.202515 461.754852,927.302979 
	C452.916687,927.302979 444.652588,927.302979 436.000305,927.302979 
	C436.000305,935.567749 436.000305,943.533875 436.000305,952.500000 
M377.198578,925.896362 
	C363.637787,926.351013 353.125336,931.925720 345.658142,943.573730 
	C339.434296,953.282166 338.167603,963.935913 339.227661,974.806458 
	C340.229492,985.079712 343.967163,994.543213 352.130432,1001.651489 
	C358.642944,1007.322205 366.235565,1010.186340 374.735504,1011.446045 
	C389.770477,1013.674377 407.614319,1009.104248 417.095215,994.804749 
	C424.713684,983.314392 425.337860,970.796692 423.031281,957.854980 
	C418.696991,933.536560 398.122040,923.832703 377.198578,925.896362 
M714.665771,927.984680 
	C702.665100,932.712097 693.735657,940.578247 690.962341,953.548645 
	C689.498962,960.393188 689.190857,967.566711 689.083435,974.602722 
	C688.838562,990.648193 701.620911,1006.252563 717.177795,1010.080261 
	C725.147522,1012.041199 732.990051,1012.577209 741.066345,1011.034607 
	C754.608215,1008.447815 764.521057,1001.273804 769.965942,988.482300 
	C774.051758,978.883850 775.061279,968.889465 772.981079,958.614990 
	C771.288757,950.255859 768.196106,942.225952 761.849609,936.658630 
	C748.336792,924.804810 732.499451,922.531372 714.665771,927.984680 
M797.572021,933.950439 
	C791.001160,939.507874 785.841736,946.195435 784.311707,954.723267 
	C783.156250,961.163269 783.114502,967.849365 783.053589,974.430359 
	C782.902832,990.748901 795.511719,1006.154053 811.437744,1010.094055 
	C819.236877,1012.023499 826.877930,1012.522339 834.801147,1011.057495 
	C848.540588,1008.517334 858.550842,1001.342163 863.984924,988.346008 
	C867.722168,979.408081 868.547913,970.241760 867.143311,960.483459 
	C863.429443,934.682983 843.138306,924.432617 822.334351,925.201538 
	C813.701782,925.520508 805.277527,928.069763 797.572021,933.950439 
M569.788452,926.996826 
	C568.999451,926.827759 567.804260,926.927673 567.485779,926.446899 
	C564.976501,922.658875 568.748596,915.288391 573.388184,915.059937 
	C576.436707,914.909790 579.511475,915.292297 583.239563,915.467651 
	C584.154724,908.930603 585.091553,902.238281 586.075684,895.208374 
	C582.187927,894.768982 578.794678,894.231201 575.382080,894.042603 
	C571.894653,893.849976 568.387329,894.053406 564.890381,893.990051 
	C553.927856,893.791443 542.092529,901.966858 540.932373,913.759644 
	C540.503967,918.114441 539.950867,922.456909 539.413025,927.169556 
	C534.956970,927.169556 530.688171,927.169556 526.351440,927.169556 
	C526.351440,933.950073 526.351440,940.330872 526.351440,947.097900 
	C530.965576,947.097900 535.237000,947.097900 540.053101,947.097900 
	C540.053101,968.196350 540.053101,988.909729 540.053101,1009.623901 
	C549.333679,1009.623901 558.046936,1009.623901 567.135864,1009.623901 
	C567.135864,988.658813 567.135864,968.066956 567.135864,946.909790 
	C572.897339,946.909790 578.292297,946.909790 583.600220,946.909790 
	C583.600220,939.949036 583.600220,933.567749 583.600220,926.999573 
	C579.044189,926.999573 574.887085,926.999573 569.788452,926.996826 
M867.000000,1084.501099 
	C867.000000,1093.253296 867.000000,1102.005493 867.000000,1110.742798 
	C870.994324,1110.742798 874.258911,1110.742798 877.998901,1110.742798 
	C877.998901,1109.369629 877.998840,1108.249023 877.998901,1107.128296 
	C877.999451,1095.473511 877.926270,1083.818115 878.030762,1072.164185 
	C878.085022,1066.114136 883.015930,1060.717773 888.782654,1060.011597 
	C894.528259,1059.307861 899.974976,1063.002563 900.985840,1069.190552 
	C901.856567,1074.520508 901.867798,1080.015015 901.961609,1085.442017 
	C902.107178,1093.864624 902.000000,1102.291626 902.000000,1110.583008 
	C905.739807,1110.583008 908.785950,1110.583008 911.997253,1110.583008 
	C911.997253,1096.019653 912.330872,1081.861816 911.869446,1067.729980 
	C911.602234,1059.547241 904.749695,1050.647339 894.340332,1050.795166 
	C885.770081,1050.916992 879.226562,1053.576538 874.518616,1060.813477 
	C871.154480,1054.340576 866.965088,1050.668457 859.228088,1050.764771 
	C852.032715,1050.854126 847.534424,1054.456787 842.688477,1060.104980 
	C842.688477,1056.763062 842.688477,1054.516846 842.688477,1052.246582 
	C839.352905,1052.246582 836.422791,1052.246582 833.299927,1052.246582 
	C833.299927,1071.864624 833.299927,1091.235229 833.299927,1110.629028 
	C836.986755,1110.629028 840.364685,1110.629028 843.799316,1110.629028 
	C843.884644,1109.614502 843.986633,1108.962769 843.987244,1108.311157 
	C843.998901,1096.323364 843.928284,1084.334961 844.027588,1072.348022 
	C844.084351,1065.495972 850.236816,1059.704102 856.844604,1060.008423 
	C862.855530,1060.285034 866.998718,1065.182739 866.999878,1072.013794 
	C867.000549,1075.843262 867.000000,1079.672607 867.000000,1084.501099 
M309.998016,1111.962158 
	C310.662689,1112.000488 311.356720,1111.927490 311.987640,1112.093750 
	C321.454285,1114.590576 331.001007,1110.954224 336.517548,1103.086914 
	C343.775757,1092.735840 343.914795,1081.647705 341.134155,1069.837158 
	C338.342468,1057.979492 327.304443,1050.139648 315.290100,1050.867065 
	C308.632935,1051.270142 304.128723,1054.401245 299.885864,1060.749268 
	C299.885864,1050.329834 299.885864,1041.413330 299.885864,1032.319702 
	C296.124237,1032.319702 292.746216,1032.319702 289.377502,1032.319702 
	C289.377502,1058.680420 289.377502,1084.719727 289.377502,1110.745605 
	C293.028717,1110.745605 296.304443,1110.745605 299.799896,1110.745605 
	C299.919525,1108.281250 300.027802,1106.050781 300.113129,1104.293335 
	C303.101501,1106.726685 306.165924,1109.222046 309.998016,1111.962158 
M582.194458,1068.870605 
	C588.713928,1060.053711 595.606934,1057.883301 603.642517,1061.875732 
	C607.856567,1063.969482 608.754089,1067.926514 608.613342,1071.725464 
	C608.569824,1072.900146 604.710449,1074.369019 602.408447,1074.944702 
	C595.002014,1076.797363 587.492920,1078.234375 580.051147,1079.951782 
	C575.039001,1081.108765 571.772461,1084.895386 571.216248,1089.420410 
	C569.427490,1103.975098 574.811401,1111.299072 590.059753,1112.921631 
	C597.274231,1113.689331 603.514526,1110.949463 608.757263,1104.823486 
	C608.956177,1107.341797 609.089844,1109.034668 609.213684,1110.602539 
	C612.693726,1110.602539 615.743774,1110.602539 618.997803,1110.602539 
	C618.997803,1096.073120 619.282043,1081.931641 618.862000,1067.811157 
	C618.686951,1061.926025 615.845825,1056.980835 610.151489,1053.965088 
	C604.318848,1050.876099 598.082520,1050.304199 591.905090,1051.143066 
	C583.021606,1052.349487 575.336487,1055.852173 572.533752,1065.816040 
	C575.615479,1066.857056 578.526306,1067.840332 582.194458,1068.870605 
M503.074280,1087.345825 
	C508.938416,1094.640381 514.770935,1101.960938 520.709045,1109.194702 
	C521.403320,1110.040405 522.653442,1110.854004 523.691528,1110.916016 
	C527.238220,1111.127686 530.805359,1110.997070 535.501404,1110.997070 
	C526.235901,1099.223633 517.687805,1088.361816 509.241577,1077.629517 
	C517.290222,1069.170044 525.086121,1060.976318 532.989197,1052.669922 
	C523.970825,1050.177856 517.976074,1053.303955 512.698853,1059.621948 
	C507.560303,1065.773926 501.617096,1071.253662 496.027222,1077.028564 
	C495.637299,1076.758545 495.247406,1076.488647 494.857483,1076.218628 
	C494.857483,1061.632812 494.857483,1047.046875 494.857483,1032.335693 
	C491.421600,1032.335693 488.374908,1032.335693 485.395203,1032.335693 
	C485.395203,1058.717896 485.395203,1084.765015 485.395203,1110.705811 
	C488.729675,1110.705811 491.666534,1110.705811 495.000519,1110.705811 
	C495.000519,1104.287598 494.921051,1098.155273 495.029053,1092.026245 
	C495.098267,1088.098633 500.008636,1084.842041 503.074280,1087.345825 
M361.509979,1106.006958 
	C362.699371,1106.875366 363.885803,1107.747803 365.078583,1108.611450 
	C375.839966,1116.403564 395.453308,1113.298828 402.005463,1101.573364 
	C408.882690,1089.266113 408.971588,1077.065918 403.143158,1064.372925 
	C395.959625,1048.728760 373.153809,1047.535400 362.062744,1057.240356 
	C350.811707,1067.085449 349.070068,1093.603638 361.509979,1106.006958 
M722.248169,1051.277832 
	C716.846069,1053.434692 711.425476,1055.064941 707.671448,1060.415527 
	C702.372192,1067.968506 700.477051,1076.190063 701.097961,1084.995605 
	C701.821838,1095.262329 705.680054,1104.226196 715.122986,1109.539307 
	C730.229858,1118.039307 750.619202,1110.266602 754.535278,1092.176392 
	C756.365784,1083.720093 756.516113,1075.632080 753.198669,1067.664551 
	C747.597168,1054.211548 736.894409,1049.764771 722.248169,1051.277832 
M444.514862,1113.000000 
	C451.029846,1112.622559 457.173340,1111.253906 462.044189,1106.462646 
	C472.569092,1096.109497 473.974609,1083.814941 470.144165,1070.172607 
	C467.136078,1059.459229 460.198456,1052.872681 449.507385,1051.185425 
	C439.047638,1049.534546 429.419373,1052.216675 423.118378,1061.520752 
	C417.697998,1069.524414 416.416321,1078.438232 417.861115,1088.147583 
	C420.061554,1102.935303 428.751373,1111.771118 444.514862,1113.000000 
M820.000000,1078.662964 
	C818.682373,1073.839966 817.948669,1068.757324 815.941284,1064.240845 
	C808.986450,1048.593140 785.794128,1047.137085 775.067566,1057.423096 
	C767.747742,1064.442261 765.858276,1073.295654 765.954224,1083.026367 
	C766.120728,1099.912842 773.523071,1109.657227 789.803894,1112.751831 
	C797.021545,1114.123779 808.763916,1110.776611 814.142883,1102.954712 
	C819.104980,1095.739136 820.581238,1088.027710 820.000000,1078.662964 
M469.073547,695.098022 
	C480.380127,701.125366 491.686707,707.152771 503.524811,713.463501 
	C503.524811,700.489136 503.570953,688.515747 503.457794,676.543762 
	C503.445679,675.261230 502.871033,673.324158 501.939697,672.810303 
	C490.229370,666.349792 478.405273,660.095459 465.992126,653.457825 
	C465.992126,666.671570 465.933075,679.098877 466.094116,691.523315 
	C466.108398,692.624268 467.557068,693.706604 469.073547,695.098022 
M465.990479,607.464539 
	C465.990479,609.127014 466.196838,610.820740 465.951080,612.446045 
	C465.263519,616.993469 467.041321,619.424316 471.303619,621.464539 
	C481.012238,626.111694 490.364380,631.502319 499.879730,636.556274 
	C500.936432,637.117554 502.112152,637.454773 503.524780,638.010864 
	C503.524780,625.452576 503.571289,613.484131 503.456970,601.517212 
	C503.444794,600.239319 502.856537,598.312256 501.922852,597.797241 
	C490.223450,591.344849 478.411011,585.097473 465.990479,578.456970 
	C465.990479,588.315063 465.990479,597.395752 465.990479,607.464539 
M393.339233,649.797424 
	C404.848999,655.896118 416.358765,661.994812 428.525146,668.441406 
	C428.525146,660.362183 428.554657,653.092957 428.515625,645.824158 
	C428.485321,640.174438 430.293549,633.351685 427.761108,629.199280 
	C425.127869,624.881592 418.312012,623.054626 413.237183,620.300598 
	C406.017853,616.382874 398.718201,612.613098 390.991272,608.536682 
	C390.991272,621.612732 390.950531,633.915649 391.064667,646.217163 
	C391.074341,647.258911 392.119476,648.291138 393.339233,649.797424 
M412.181946,592.206482 
	C417.391205,594.993103 422.600464,597.779724 428.520660,600.946655 
	C428.520660,587.717407 428.555847,575.292542 428.449402,562.868835 
	C428.441467,561.944275 427.644379,560.612061 426.832886,560.171082 
	C415.079071,553.784790 403.260040,547.518494 390.990723,540.975037 
	C390.990723,554.000183 390.901306,566.302734 391.120209,578.599854 
	C391.143738,579.922485 392.687378,581.682861 393.990601,582.437805 
	C399.731415,585.763367 405.642639,588.794678 412.181946,592.206482 
M695.995178,1053.672363 
	C694.990173,1052.782715 694.061340,1051.236694 692.967773,1051.109863 
	C685.865479,1050.285767 679.857910,1052.477417 675.215942,1059.177246 
	C675.040039,1056.331909 674.914856,1054.307983 674.797058,1052.402588 
	C671.286743,1052.402588 668.240540,1052.402588 665.268250,1052.402588 
	C665.268250,1072.052246 665.268250,1091.297974 665.268250,1110.662598 
	C668.921753,1110.662598 672.299072,1110.662598 676.000000,1110.662598 
	C676.000000,1098.202271 675.996765,1086.076538 676.001465,1073.950684 
	C676.003540,1068.673096 678.256775,1064.410767 683.125061,1062.587646 
	C686.996826,1061.137695 691.360840,1061.002441 695.999023,1060.197998 
	C695.999023,1058.528564 695.999023,1056.568115 695.995178,1053.672363 
M989.293213,1073.000244 
	C978.580994,1073.000244 967.868835,1073.000244 957.297729,1073.000244 
	C957.297729,1076.424194 957.297729,1079.013672 957.297729,1081.670898 
	C969.293518,1081.670898 980.989075,1081.670898 992.995850,1081.670898 
	C992.995850,1079.539429 993.330750,1077.645142 992.879089,1075.961792 
	C992.573242,1074.822144 991.161194,1073.979370 989.293213,1073.000244 
M225.501068,1073.000000 
	C220.085587,1073.000000 214.670090,1073.000000 209.232391,1073.000000 
	C209.232391,1076.291016 209.232391,1078.884888 209.232391,1081.737305 
	C220.821686,1081.737305 232.178604,1081.737305 243.675568,1081.737305 
	C243.675568,1078.761841 243.675568,1076.055786 243.675568,1073.000000 
	C237.738113,1073.000000 232.119064,1073.000000 225.501068,1073.000000 
z"/>
<path fill="#F0F0F0" opacity="1.000000" stroke="none" 
	d="
M600.760498,548.370361 
	C563.190857,527.555298 525.607422,506.765076 488.054962,485.919128 
	C437.301056,457.744812 386.571167,429.527313 335.829498,401.331055 
	C334.423584,400.549774 333.000977,399.798676 331.000305,398.716614 
	C331.000305,400.701233 331.000275,402.121002 331.000275,403.540771 
	C331.000275,500.195953 330.985535,596.851135 331.082428,693.506287 
	C331.084961,696.014282 332.308258,698.521057 333.197540,701.930664 
	C285.895905,728.025940 237.459839,754.747070 188.346573,781.841797 
	C188.346573,629.021118 188.346573,477.175354 188.346573,324.363678 
	C191.118164,325.462891 193.721786,326.231964 196.079422,327.469574 
	C239.772583,350.406219 283.459045,373.356079 327.058624,396.469696 
	C330.166077,398.117065 332.292236,397.876221 335.202301,396.256470 
	C423.497070,347.112640 511.841614,298.058136 600.846069,249.044373 
	C690.960022,298.806915 780.406250,348.514740 870.493103,398.578583 
	C855.241943,407.052673 840.729675,415.120514 826.213440,423.181274 
	C751.063049,464.911926 675.911560,506.640808 600.760498,548.370361 
z"/>
<path fill="#708090" opacity="1.000000" stroke="none" 
	d="
M600.818970,548.811768 
	C675.911560,506.640808 751.063049,464.911926 826.213440,423.181274 
	C840.729675,415.120514 855.241943,407.052673 870.493103,398.578583 
	C780.406250,348.514740 690.960022,298.806915 601.184998,248.944916 
	C600.904175,214.154694 600.957642,179.518677 600.997498,144.882660 
	C601.014709,129.895264 601.003967,114.907829 600.995728,99.468216 
	C600.985474,99.016022 600.939941,99.053551 600.939941,99.053558 
	C607.724121,102.408806 614.624146,105.550568 621.272766,109.155731 
	C652.660400,126.175346 683.982971,143.314682 715.321411,160.424881 
	C750.741638,179.763657 786.147339,199.129227 821.571899,218.460098 
	C852.476074,235.324280 883.405640,252.142227 914.309753,269.006592 
	C946.671692,286.666473 979.017151,304.356476 1011.365173,322.041809 
	C1011.908569,322.338959 1012.393250,322.743591 1013.469971,323.488922 
	C1005.691833,327.607971 998.401489,331.488647 991.093262,335.335419 
	C952.216187,355.798828 913.363953,376.309937 874.401184,396.608795 
	C871.144897,398.305267 870.971252,400.442474 870.972229,403.374817 
	C871.005798,499.678528 870.958435,595.982300 871.118835,692.285767 
	C871.127136,697.272705 869.446594,700.094299 865.266235,702.392334 
	C844.035461,714.063416 822.903625,725.914490 801.725830,737.682129 
	C774.541382,752.787415 747.340881,767.863831 720.157227,782.970520 
	C696.263184,796.249146 672.389221,809.563904 648.493835,822.840088 
	C633.760315,831.025879 619.005005,839.172729 604.252075,847.323547 
	C603.408508,847.789612 602.497192,848.133179 601.000000,848.814880 
	C601.000000,846.629944 601.000000,844.892212 601.000000,843.154541 
	C601.000000,747.184082 601.000793,651.213562 600.994934,555.243103 
	C600.994812,553.246460 600.918335,551.249878 600.818970,548.811768 
z"/>
<path fill="#606D7B" opacity="1.000000" stroke="none" 
	d="
M622.065613,916.000366 
	C622.065674,923.310669 622.065674,930.121155 622.065674,937.559570 
	C627.342590,931.679199 632.465637,927.015137 640.451355,925.718384 
	C654.930115,923.367126 668.222351,931.617737 673.248291,941.347046 
	C678.701172,951.902893 680.582153,962.694458 679.341431,974.588013 
	C678.501343,982.640808 676.729858,990.035706 672.635132,996.890442 
	C667.147217,1006.077209 654.955505,1014.055237 641.102295,1011.177734 
	C630.814270,1009.040710 629.231018,1008.094482 622.100830,999.408325 
	C622.100830,1003.136719 622.100830,1006.316772 622.100830,1010.066284 
	C617.194153,1010.066284 612.745911,1010.066223 608.297668,1010.066223 
	C604.011414,1010.066223 599.725159,1010.066284 595.194702,1010.066284 
	C595.194702,972.275085 595.194702,935.013733 595.194702,897.342834 
	C603.875122,897.342834 612.597656,897.342834 622.065552,897.342834 
	C622.065552,903.315430 622.065552,909.407898 622.065613,916.000366 
z"/>
<path fill="#708090" opacity="1.000000" stroke="none" 
	d="
M228.249832,974.520508 
	C227.387314,965.445679 225.941803,956.733093 226.141891,948.058533 
	C226.728271,922.635681 240.987793,901.346680 267.845703,896.358887 
	C286.805786,892.837708 304.998322,896.174316 318.839600,911.457642 
	C325.452942,918.760010 328.800934,927.707947 330.069153,937.991455 
	C321.093994,937.991455 312.619110,938.102600 304.154968,937.851807 
	C303.089111,937.820251 301.523895,936.057739 301.133362,934.803467 
	C298.392212,926.000244 292.187683,921.155457 283.425323,920.116028 
	C273.148834,918.896973 264.252106,922.179138 259.198181,931.730835 
	C251.536880,946.210266 251.528839,961.282593 259.072968,975.659973 
	C267.154785,991.062195 291.542114,991.125977 299.515503,976.945251 
	C299.677551,976.657043 299.944580,976.370605 299.966431,976.069092 
	C300.560486,967.873047 306.443024,968.831726 312.006989,968.968201 
	C317.811523,969.110535 323.622314,969.000000 331.096527,969.000000 
	C328.888367,975.358276 327.450256,981.129089 324.953186,986.398132 
	C315.710693,1005.900635 291.409424,1014.713562 270.627106,1011.177124 
	C248.993469,1007.495789 235.053452,995.643677 228.249832,974.520508 
z"/>
<path fill="#708090" opacity="1.000000" stroke="none" 
	d="
M907.000122,943.965271 
	C907.000122,947.954468 907.000122,951.450928 907.000122,956.070190 
	C913.374756,948.280151 919.403320,941.361450 924.895691,934.040466 
	C928.440002,929.316162 931.933899,926.168945 938.543823,926.829529 
	C945.962708,927.571045 953.512817,927.000000 962.357056,927.000000 
	C951.949036,939.587646 942.126282,951.467529 932.280823,963.374756 
	C942.488281,978.728760 952.668823,994.042297 963.276489,1009.998352 
	C952.805908,1009.998352 943.338806,1010.191284 933.894104,1009.818481 
	C932.218140,1009.752319 930.200684,1007.623108 929.082092,1005.950806 
	C923.372375,997.414856 917.905701,988.716248 912.244446,979.903870 
	C908.520996,982.102417 906.807251,985.010620 906.944153,989.299316 
	C907.156250,995.941650 907.000244,1002.595764 907.000244,1009.621338 
	C898.053528,1009.621338 889.341187,1009.621338 880.311890,1009.621338 
	C880.311890,972.257263 880.311890,934.893799 880.311890,897.264893 
	C889.062195,897.264893 897.655701,897.264893 907.000122,897.264893 
	C907.000122,912.652283 907.000122,928.062439 907.000122,943.965271 
z"/>
<path fill="#708090" opacity="1.000000" stroke="none" 
	d="
M436.000305,952.000000 
	C436.000305,943.533875 436.000305,935.567749 436.000305,927.302979 
	C444.652588,927.302979 452.916687,927.302979 461.754852,927.302979 
	C461.754852,931.202515 461.754852,935.234253 461.754852,940.587708 
	C464.664795,937.323853 466.705719,935.093689 468.682220,932.807800 
	C480.023804,919.690796 509.558380,924.175415 514.120789,942.454773 
	C515.296326,947.164429 516.779541,951.965210 516.869690,956.747742 
	C517.199158,974.230957 517.000000,991.724121 517.000000,1009.606323 
	C508.080353,1009.606323 499.363647,1009.606323 490.000000,1009.606323 
	C490.000000,1003.882019 490.000031,998.113525 490.000000,992.344971 
	C490.000000,982.512329 490.192169,972.674622 489.935364,962.848694 
	C489.750763,955.786194 486.684143,950.407959 480.276123,948.621704 
	C472.549469,946.467896 464.502716,951.585571 464.066895,959.797974 
	C463.469757,971.049133 463.285400,982.323608 463.021240,993.590393 
	C462.897186,998.880737 463.000000,1004.176392 463.000000,1009.729065 
	C453.946808,1009.729065 445.349579,1009.729065 436.000305,1009.729065 
	C436.000305,990.669495 436.000305,971.584778 436.000305,952.000000 
z"/>
<path fill="#708090" opacity="1.000000" stroke="none" 
	d="
M377.603638,925.695312 
	C398.122040,923.832703 418.696991,933.536560 423.031281,957.854980 
	C425.337860,970.796692 424.713684,983.314392 417.095215,994.804749 
	C407.614319,1009.104248 389.770477,1013.674377 374.735504,1011.446045 
	C366.235565,1010.186340 358.642944,1007.322205 352.130432,1001.651489 
	C343.967163,994.543213 340.229492,985.079712 339.227661,974.806458 
	C338.167603,963.935913 339.434296,953.282166 345.658142,943.573730 
	C353.125336,931.925720 363.637787,926.351013 377.603638,925.695312 
M374.508911,988.072266 
	C380.669617,993.143982 389.623047,990.312012 392.901886,984.068970 
	C398.250854,973.884216 398.139252,963.469666 393.032410,953.125061 
	C389.720856,946.417114 377.798523,945.004700 373.003204,950.221069 
	C365.519104,958.362488 366.187805,967.717529 367.838959,977.104797 
	C368.513336,980.938782 371.709503,984.329163 374.508911,988.072266 
z"/>
<path fill="#708090" opacity="1.000000" stroke="none" 
	d="
M715.067383,927.924561 
	C732.499451,922.531372 748.336792,924.804810 761.849609,936.658630 
	C768.196106,942.225952 771.288757,950.255859 772.981079,958.614990 
	C775.061279,968.889465 774.051758,978.883850 769.965942,988.482300 
	C764.521057,1001.273804 754.608215,1008.447815 741.066345,1011.034607 
	C732.990051,1012.577209 725.147522,1012.041199 717.177795,1010.080261 
	C701.620911,1006.252563 688.838562,990.648193 689.083435,974.602722 
	C689.190857,967.566711 689.498962,960.393188 690.962341,953.548645 
	C693.735657,940.578247 702.665100,932.712097 715.067383,927.924561 
M745.989441,963.937195 
	C745.337708,961.591614 744.761475,959.221863 744.018738,956.905457 
	C742.350952,951.703796 739.181946,947.772583 733.533813,947.079590 
	C726.418335,946.206543 722.042786,948.753052 719.037109,954.865051 
	C714.632141,963.822632 715.219055,972.959717 718.580872,982.001465 
	C720.394836,986.880066 727.297668,991.575073 731.764709,990.844421 
	C737.358398,989.929504 742.202942,987.048035 743.698181,981.301086 
	C745.083435,975.977051 745.278931,970.343567 745.989441,963.937195 
z"/>
<path fill="#708090" opacity="1.000000" stroke="none" 
	d="
M797.829468,933.694092 
	C805.277527,928.069763 813.701782,925.520508 822.334351,925.201538 
	C843.138306,924.432617 863.429443,934.682983 867.143311,960.483459 
	C868.547913,970.241760 867.722168,979.408081 863.984924,988.346008 
	C858.550842,1001.342163 848.540588,1008.517334 834.801147,1011.057495 
	C826.877930,1012.522339 819.236877,1012.023499 811.437744,1010.094055 
	C795.511719,1006.154053 782.902832,990.748901 783.053589,974.430359 
	C783.114502,967.849365 783.156250,961.163269 784.311707,954.723267 
	C785.841736,946.195435 791.001160,939.507874 797.829468,933.694092 
M839.999939,971.311768 
	C839.325439,966.299255 839.232300,961.114746 837.813782,956.322449 
	C836.378601,951.473694 833.005127,947.575500 827.402710,947.045776 
	C820.406128,946.384155 816.124207,948.811584 813.199829,954.540649 
	C808.639954,963.473572 809.174927,972.661133 812.400696,981.701111 
	C815.108826,989.290466 823.703674,992.520691 830.905701,988.938904 
	C837.714539,985.552673 839.216248,979.028137 839.999939,971.311768 
z"/>
<path fill="#708090" opacity="1.000000" stroke="none" 
	d="
M570.259216,926.998169 
	C574.887085,926.999573 579.044189,926.999573 583.600220,926.999573 
	C583.600220,933.567749 583.600220,939.949036 583.600220,946.909790 
	C578.292297,946.909790 572.897339,946.909790 567.135864,946.909790 
	C567.135864,968.066956 567.135864,988.658813 567.135864,1009.623901 
	C558.046936,1009.623901 549.333679,1009.623901 540.053101,1009.623901 
	C540.053101,988.909729 540.053101,968.196350 540.053101,947.097900 
	C535.237000,947.097900 530.965576,947.097900 526.351440,947.097900 
	C526.351440,940.330872 526.351440,933.950073 526.351440,927.169556 
	C530.688171,927.169556 534.956970,927.169556 539.413025,927.169556 
	C539.950867,922.456909 540.503967,918.114441 540.932373,913.759644 
	C542.092529,901.966858 553.927856,893.791443 564.890381,893.990051 
	C568.387329,894.053406 571.894653,893.849976 575.382080,894.042603 
	C578.794678,894.231201 582.187927,894.768982 586.075684,895.208374 
	C585.091553,902.238281 584.154724,908.930603 583.239563,915.467651 
	C579.511475,915.292297 576.436707,914.909790 573.388184,915.059937 
	C568.748596,915.288391 564.976501,922.658875 567.485779,926.446899 
	C567.804260,926.927673 568.999451,926.827759 570.259216,926.998169 
z"/>
<path fill="#708090" opacity="1.000000" stroke="none" 
	d="
M867.000000,1084.001587 
	C867.000000,1079.672607 867.000549,1075.843262 866.999878,1072.013794 
	C866.998718,1065.182739 862.855530,1060.285034 856.844604,1060.008423 
	C850.236816,1059.704102 844.084351,1065.495972 844.027588,1072.348022 
	C843.928284,1084.334961 843.998901,1096.323364 843.987244,1108.311157 
	C843.986633,1108.962769 843.884644,1109.614502 843.799316,1110.629028 
	C840.364685,1110.629028 836.986755,1110.629028 833.299927,1110.629028 
	C833.299927,1091.235229 833.299927,1071.864624 833.299927,1052.246582 
	C836.422791,1052.246582 839.352905,1052.246582 842.688477,1052.246582 
	C842.688477,1054.516846 842.688477,1056.763062 842.688477,1060.104980 
	C847.534424,1054.456787 852.032715,1050.854126 859.228088,1050.764771 
	C866.965088,1050.668457 871.154480,1054.340576 874.518616,1060.813477 
	C879.226562,1053.576538 885.770081,1050.916992 894.340332,1050.795166 
	C904.749695,1050.647339 911.602234,1059.547241 911.869446,1067.729980 
	C912.330872,1081.861816 911.997253,1096.019653 911.997253,1110.583008 
	C908.785950,1110.583008 905.739807,1110.583008 902.000000,1110.583008 
	C902.000000,1102.291626 902.107178,1093.864624 901.961609,1085.442017 
	C901.867798,1080.015015 901.856567,1074.520508 900.985840,1069.190552 
	C899.974976,1063.002563 894.528259,1059.307861 888.782654,1060.011597 
	C883.015930,1060.717773 878.085022,1066.114136 878.030762,1072.164185 
	C877.926270,1083.818115 877.999451,1095.473511 877.998901,1107.128296 
	C877.998840,1108.249023 877.998901,1109.369629 877.998901,1110.742798 
	C874.258911,1110.742798 870.994324,1110.742798 867.000000,1110.742798 
	C867.000000,1102.005493 867.000000,1093.253296 867.000000,1084.001587 
z"/>
<path fill="#71808F" opacity="1.000000" stroke="none" 
	d="
M309.614197,1111.839722 
	C306.165924,1109.222046 303.101501,1106.726685 300.113129,1104.293335 
	C300.027802,1106.050781 299.919525,1108.281250 299.799896,1110.745605 
	C296.304443,1110.745605 293.028717,1110.745605 289.377502,1110.745605 
	C289.377502,1084.719727 289.377502,1058.680420 289.377502,1032.319702 
	C292.746216,1032.319702 296.124237,1032.319702 299.885864,1032.319702 
	C299.885864,1041.413330 299.885864,1050.329834 299.885864,1060.749268 
	C304.128723,1054.401245 308.632935,1051.270142 315.290100,1050.867065 
	C327.304443,1050.139648 338.342468,1057.979492 341.134155,1069.837158 
	C343.914795,1081.647705 343.775757,1092.735840 336.517548,1103.086914 
	C331.001007,1110.954224 321.454285,1114.590576 311.987640,1112.093750 
	C311.356720,1111.927490 310.662689,1112.000488 309.614197,1111.839722 
M318.143890,1102.998901 
	C321.202209,1101.103027 325.045288,1099.838867 327.173859,1097.194580 
	C333.944397,1088.783936 333.636292,1078.938354 329.648865,1069.704102 
	C325.006622,1058.953247 312.314911,1056.610474 304.869415,1065.648926 
	C298.825989,1072.985107 299.252106,1081.382935 300.988678,1089.990356 
	C302.602600,1097.989868 308.795929,1104.203979 318.143890,1102.998901 
z"/>
<path fill="#708090" opacity="1.000000" stroke="none" 
	d="
M581.815796,1068.847168 
	C578.526306,1067.840332 575.615479,1066.857056 572.533752,1065.816040 
	C575.336487,1055.852173 583.021606,1052.349487 591.905090,1051.143066 
	C598.082520,1050.304199 604.318848,1050.876099 610.151489,1053.965088 
	C615.845825,1056.980835 618.686951,1061.926025 618.862000,1067.811157 
	C619.282043,1081.931641 618.997803,1096.073120 618.997803,1110.602539 
	C615.743774,1110.602539 612.693726,1110.602539 609.213684,1110.602539 
	C609.089844,1109.034668 608.956177,1107.341797 608.757263,1104.823486 
	C603.514526,1110.949463 597.274231,1113.689331 590.059753,1112.921631 
	C574.811401,1111.299072 569.427490,1103.975098 571.216248,1089.420410 
	C571.772461,1084.895386 575.039001,1081.108765 580.051147,1079.951782 
	C587.492920,1078.234375 595.002014,1076.797363 602.408447,1074.944702 
	C604.710449,1074.369019 608.569824,1072.900146 608.613342,1071.725464 
	C608.754089,1067.926514 607.856567,1063.969482 603.642517,1061.875732 
	C595.606934,1057.883301 588.713928,1060.053711 581.815796,1068.847168 
M608.997192,1085.720093 
	C608.526611,1084.834229 607.905457,1083.127808 607.607544,1083.182617 
	C600.402893,1084.504883 593.057861,1085.489624 586.154663,1087.787109 
	C583.852844,1088.553223 581.084412,1093.012329 581.438660,1095.340454 
	C581.856567,1098.087402 585.083618,1101.992188 587.695068,1102.543701 
	C598.634644,1104.854370 609.131104,1100.989014 608.997192,1085.720093 
z"/>
<path fill="#708090" opacity="1.000000" stroke="none" 
	d="
M502.993317,1086.992432 
	C500.008636,1084.842041 495.098267,1088.098633 495.029053,1092.026245 
	C494.921051,1098.155273 495.000519,1104.287598 495.000519,1110.705811 
	C491.666534,1110.705811 488.729675,1110.705811 485.395203,1110.705811 
	C485.395203,1084.765015 485.395203,1058.717896 485.395203,1032.335693 
	C488.374908,1032.335693 491.421600,1032.335693 494.857483,1032.335693 
	C494.857483,1047.046875 494.857483,1061.632812 494.857483,1076.218628 
	C495.247406,1076.488647 495.637299,1076.758545 496.027222,1077.028564 
	C501.617096,1071.253662 507.560303,1065.773926 512.698853,1059.621948 
	C517.976074,1053.303955 523.970825,1050.177856 532.989197,1052.669922 
	C525.086121,1060.976318 517.290222,1069.170044 509.241577,1077.629517 
	C517.687805,1088.361816 526.235901,1099.223633 535.501404,1110.997070 
	C530.805359,1110.997070 527.238220,1111.127686 523.691528,1110.916016 
	C522.653442,1110.854004 521.403320,1110.040405 520.709045,1109.194702 
	C514.770935,1101.960938 508.938416,1094.640381 502.993317,1086.992432 
z"/>
<path fill="#708090" opacity="1.000000" stroke="none" 
	d="
M361.252075,1105.749268 
	C349.070068,1093.603638 350.811707,1067.085449 362.062744,1057.240356 
	C373.153809,1047.535400 395.959625,1048.728760 403.143158,1064.372925 
	C408.971588,1077.065918 408.882690,1089.266113 402.005463,1101.573364 
	C395.453308,1113.298828 375.839966,1116.403564 365.078583,1108.611450 
	C363.885803,1107.747803 362.699371,1106.875366 361.252075,1105.749268 
M367.422882,1096.884521 
	C375.097748,1107.294067 392.265289,1104.877930 395.248657,1090.170532 
	C396.255737,1085.205811 396.388763,1079.876831 395.849274,1074.828857 
	C395.032074,1067.182739 387.304962,1060.265991 380.391907,1060.001953 
	C373.568939,1059.741333 365.558014,1066.562012 364.077789,1074.027832 
	C362.547363,1081.746948 362.884521,1089.254272 367.422882,1096.884521 
z"/>
<path fill="#708090" opacity="1.000000" stroke="none" 
	d="
M722.671143,1051.159058 
	C736.894409,1049.764771 747.597168,1054.211548 753.198669,1067.664551 
	C756.516113,1075.632080 756.365784,1083.720093 754.535278,1092.176392 
	C750.619202,1110.266602 730.229858,1118.039307 715.122986,1109.539307 
	C705.680054,1104.226196 701.821838,1095.262329 701.097961,1084.995605 
	C700.477051,1076.190063 702.372192,1067.968506 707.671448,1060.415527 
	C711.425476,1055.064941 716.846069,1053.434692 722.671143,1051.159058 
M712.000000,1085.214600 
	C712.705383,1088.214722 712.955078,1091.424805 714.218262,1094.168091 
	C716.346497,1098.790161 719.803467,1102.436035 725.235535,1102.939087 
	C731.489136,1103.518433 737.304077,1102.625488 740.982788,1096.520020 
	C746.319153,1087.663086 746.141479,1078.796509 742.196777,1069.375244 
	C737.967590,1059.274658 722.945190,1056.158447 715.438354,1067.217163 
	C711.987305,1072.301147 711.658386,1078.300781 712.000000,1085.214600 
z"/>
<path fill="#708090" opacity="1.000000" stroke="none" 
	d="
M444.069519,1113.000000 
	C428.751373,1111.771118 420.061554,1102.935303 417.861115,1088.147583 
	C416.416321,1078.438232 417.697998,1069.524414 423.118378,1061.520752 
	C429.419373,1052.216675 439.047638,1049.534546 449.507385,1051.185425 
	C460.198456,1052.872681 467.136078,1059.459229 470.144165,1070.172607 
	C473.974609,1083.814941 472.569092,1096.109497 462.044189,1106.462646 
	C457.173340,1111.253906 451.029846,1112.622559 444.069519,1113.000000 
M428.000000,1084.274414 
	C428.342499,1086.361816 428.553589,1088.481201 429.052032,1090.530640 
	C430.584320,1096.830688 436.295929,1102.290405 441.933380,1102.989990 
	C449.342834,1103.909424 455.495178,1101.273438 458.403687,1094.909180 
	C462.080994,1086.862427 462.301880,1078.373413 458.974213,1070.103394 
	C456.412811,1063.737793 451.233032,1059.920654 444.503845,1060.205688 
	C438.503235,1060.459717 432.823425,1063.018433 430.869751,1069.620117 
	C429.546173,1074.092651 428.931671,1078.774902 428.000000,1084.274414 
z"/>
<path fill="#708090" opacity="1.000000" stroke="none" 
	d="
M820.000000,1079.138184 
	C820.581238,1088.027710 819.104980,1095.739136 814.142883,1102.954712 
	C808.763916,1110.776611 797.021545,1114.123779 789.803894,1112.751831 
	C773.523071,1109.657227 766.120728,1099.912842 765.954224,1083.026367 
	C765.858276,1073.295654 767.747742,1064.442261 775.067566,1057.423096 
	C785.794128,1047.137085 808.986450,1048.593140 815.941284,1064.240845 
	C817.948669,1068.757324 818.682373,1073.839966 820.000000,1079.138184 
M806.120361,1095.505249 
	C811.244202,1087.485596 810.745667,1078.989990 807.704590,1070.561646 
	C805.476685,1064.386963 800.435303,1060.863159 794.068787,1060.121826 
	C787.902222,1059.403687 783.092163,1062.806519 780.165344,1067.848267 
	C776.114197,1074.826904 775.072876,1082.315063 777.661133,1090.397217 
	C779.632019,1096.551514 782.913574,1101.322754 789.068726,1102.765381 
	C795.764832,1104.334839 801.821777,1102.302856 806.120361,1095.505249 
z"/>
<path fill="#FAFAFA" opacity="1.000000" stroke="none" 
	d="
M468.706543,694.947815 
	C467.557068,693.706604 466.108398,692.624268 466.094116,691.523315 
	C465.933075,679.098877 465.992126,666.671570 465.992126,653.457825 
	C478.405273,660.095459 490.229370,666.349792 501.939697,672.810303 
	C502.871033,673.324158 503.445679,675.261230 503.457794,676.543762 
	C503.570953,688.515747 503.524811,700.489136 503.524811,713.463501 
	C491.686707,707.152771 480.380127,701.125366 468.706543,694.947815 
z"/>
<path fill="#FAFAFA" opacity="1.000000" stroke="none" 
	d="
M465.990479,606.970459 
	C465.990479,597.395752 465.990479,588.315063 465.990479,578.456970 
	C478.411011,585.097473 490.223450,591.344849 501.922852,597.797241 
	C502.856537,598.312256 503.444794,600.239319 503.456970,601.517212 
	C503.571289,613.484131 503.524780,625.452576 503.524780,638.010864 
	C502.112152,637.454773 500.936432,637.117554 499.879730,636.556274 
	C490.364380,631.502319 481.012238,626.111694 471.303619,621.464539 
	C467.041321,619.424316 465.263519,616.993469 465.951080,612.446045 
	C466.196838,610.820740 465.990479,609.127014 465.990479,606.970459 
z"/>
<path fill="#FAFAFA" opacity="1.000000" stroke="none" 
	d="
M393.011414,649.562622 
	C392.119476,648.291138 391.074341,647.258911 391.064667,646.217163 
	C390.950531,633.915649 390.991272,621.612732 390.991272,608.536682 
	C398.718201,612.613098 406.017853,616.382874 413.237183,620.300598 
	C418.312012,623.054626 425.127869,624.881592 427.761108,629.199280 
	C430.293549,633.351685 428.485321,640.174438 428.515625,645.824158 
	C428.554657,653.092957 428.525146,660.362183 428.525146,668.441406 
	C416.358765,661.994812 404.848999,655.896118 393.011414,649.562622 
z"/>
<path fill="#FAFAFA" opacity="1.000000" stroke="none" 
	d="
M411.837036,592.069519 
	C405.642639,588.794678 399.731415,585.763367 393.990601,582.437805 
	C392.687378,581.682861 391.143738,579.922485 391.120209,578.599854 
	C390.901306,566.302734 390.990723,554.000183 390.990723,540.975037 
	C403.260040,547.518494 415.079071,553.784790 426.832886,560.171082 
	C427.644379,560.612061 428.441467,561.944275 428.449402,562.868835 
	C428.555847,575.292542 428.520660,587.717407 428.520660,600.946655 
	C422.600464,597.779724 417.391205,594.993103 411.837036,592.069519 
z"/>
<path fill="#708090" opacity="1.000000" stroke="none" 
	d="
M695.997070,1054.139893 
	C695.999023,1056.568115 695.999023,1058.528564 695.999023,1060.197998 
	C691.360840,1061.002441 686.996826,1061.137695 683.125061,1062.587646 
	C678.256775,1064.410767 676.003540,1068.673096 676.001465,1073.950684 
	C675.996765,1086.076538 676.000000,1098.202271 676.000000,1110.662598 
	C672.299072,1110.662598 668.921753,1110.662598 665.268250,1110.662598 
	C665.268250,1091.297974 665.268250,1072.052246 665.268250,1052.402588 
	C668.240540,1052.402588 671.286743,1052.402588 674.797058,1052.402588 
	C674.914856,1054.307983 675.040039,1056.331909 675.215942,1059.177246 
	C679.857910,1052.477417 685.865479,1050.285767 692.967773,1051.109863 
	C694.061340,1051.236694 694.990173,1052.782715 695.997070,1054.139893 
z"/>
<path fill="#708090" opacity="1.000000" stroke="none" 
	d="
M989.768555,1073.001953 
	C991.161194,1073.979370 992.573242,1074.822144 992.879089,1075.961792 
	C993.330750,1077.645142 992.995850,1079.539429 992.995850,1081.670898 
	C980.989075,1081.670898 969.293518,1081.670898 957.297729,1081.670898 
	C957.297729,1079.013672 957.297729,1076.424194 957.297729,1073.000244 
	C967.868835,1073.000244 978.580994,1073.000244 989.768555,1073.001953 
z"/>
<path fill="#708090" opacity="1.000000" stroke="none" 
	d="
M226.000534,1073.000000 
	C232.119064,1073.000000 237.738113,1073.000000 243.675568,1073.000000 
	C243.675568,1076.055786 243.675568,1078.761841 243.675568,1081.737305 
	C232.178604,1081.737305 220.821686,1081.737305 209.232391,1081.737305 
	C209.232391,1078.884888 209.232391,1076.291016 209.232391,1073.000000 
	C214.670090,1073.000000 220.085587,1073.000000 226.000534,1073.000000 
z"/>
<path fill="#708090" opacity="1.000000" stroke="none" 
	d="
M601.009277,98.998550 
	C600.815125,98.825035 600.597168,98.668999 600.379211,98.512962 
	C600.608765,98.556541 600.838379,98.600121 601.003906,98.848618 
	C600.939941,99.053551 600.985474,99.016022 601.009277,98.998550 
z"/>
<path fill="#000000" opacity="1.000000" stroke="none" 
	d="
M374.133667,987.996826 
	C371.709503,984.329163 368.513336,980.938782 367.838959,977.104797 
	C366.187805,967.717529 365.519104,958.362488 373.003204,950.221069 
	C377.798523,945.004700 389.720856,946.417114 393.032410,953.125061 
	C398.139252,963.469666 398.250854,973.884216 392.901886,984.068970 
	C389.623047,990.312012 380.669617,993.143982 374.133667,987.996826 
z"/>
<path fill="#000000" opacity="1.000000" stroke="none" 
	d="
M745.993896,964.391724 
	C745.278931,970.343567 745.083435,975.977051 743.698181,981.301086 
	C742.202942,987.048035 737.358398,989.929504 731.764709,990.844421 
	C727.297668,991.575073 720.394836,986.880066 718.580872,982.001465 
	C715.219055,972.959717 714.632141,963.822632 719.037109,954.865051 
	C722.042786,948.753052 726.418335,946.206543 733.533813,947.079590 
	C739.181946,947.772583 742.350952,951.703796 744.018738,956.905457 
	C744.761475,959.221863 745.337708,961.591614 745.993896,964.391724 
z"/>
<path fill="#000000" opacity="1.000000" stroke="none" 
	d="
M840.000000,971.771362 
	C839.216248,979.028137 837.714539,985.552673 830.905701,988.938904 
	C823.703674,992.520691 815.108826,989.290466 812.400696,981.701111 
	C809.174927,972.661133 808.639954,963.473572 813.199829,954.540649 
	C816.124207,948.811584 820.406128,946.384155 827.402710,947.045776 
	C833.005127,947.575500 836.378601,951.473694 837.813782,956.322449 
	C839.232300,961.114746 839.325439,966.299255 840.000000,971.771362 
z"/>
<path fill="#000000" opacity="1.000000" stroke="none" 
	d="
M317.712891,1102.999512 
	C308.795929,1104.203979 302.602600,1097.989868 300.988678,1089.990356 
	C299.252106,1081.382935 298.825989,1072.985107 304.869415,1065.648926 
	C312.314911,1056.610474 325.006622,1058.953247 329.648865,1069.704102 
	C333.636292,1078.938354 333.944397,1088.783936 327.173859,1097.194580 
	C325.045288,1099.838867 321.202209,1101.103027 317.712891,1102.999512 
z"/>
<path fill="#000000" opacity="1.000000" stroke="none" 
	d="
M608.998413,1086.160156 
	C609.131104,1100.989014 598.634644,1104.854370 587.695068,1102.543701 
	C585.083618,1101.992188 581.856567,1098.087402 581.438660,1095.340454 
	C581.084412,1093.012329 583.852844,1088.553223 586.154663,1087.787109 
	C593.057861,1085.489624 600.402893,1084.504883 607.607544,1083.182617 
	C607.905457,1083.127808 608.526611,1084.834229 608.998413,1086.160156 
z"/>
<path fill="#000000" opacity="1.000000" stroke="none" 
	d="
M367.243408,1096.554443 
	C362.884521,1089.254272 362.547363,1081.746948 364.077789,1074.027832 
	C365.558014,1066.562012 373.568939,1059.741333 380.391907,1060.001953 
	C387.304962,1060.265991 395.032074,1067.182739 395.849274,1074.828857 
	C396.388763,1079.876831 396.255737,1085.205811 395.248657,1090.170532 
	C392.265289,1104.877930 375.097748,1107.294067 367.243408,1096.554443 
z"/>
<path fill="#000000" opacity="1.000000" stroke="none" 
	d="
M712.000000,1084.755859 
	C711.658386,1078.300781 711.987305,1072.301147 715.438354,1067.217163 
	C722.945190,1056.158447 737.967590,1059.274658 742.196777,1069.375244 
	C746.141479,1078.796509 746.319153,1087.663086 740.982788,1096.520020 
	C737.304077,1102.625488 731.489136,1103.518433 725.235535,1102.939087 
	C719.803467,1102.436035 716.346497,1098.790161 714.218262,1094.168091 
	C712.955078,1091.424805 712.705383,1088.214722 712.000000,1084.755859 
z"/>
<path fill="#000000" opacity="1.000000" stroke="none" 
	d="
M428.000000,1083.818848 
	C428.931671,1078.774902 429.546173,1074.092651 430.869751,1069.620117 
	C432.823425,1063.018433 438.503235,1060.459717 444.503845,1060.205688 
	C451.233032,1059.920654 456.412811,1063.737793 458.974213,1070.103394 
	C462.301880,1078.373413 462.080994,1086.862427 458.403687,1094.909180 
	C455.495178,1101.273438 449.342834,1103.909424 441.933380,1102.989990 
	C436.295929,1102.290405 430.584320,1096.830688 429.052032,1090.530640 
	C428.553589,1088.481201 428.342499,1086.361816 428.000000,1083.818848 
z"/>
<path fill="#000000" opacity="1.000000" stroke="none" 
	d="
M806.031433,1095.872070 
	C801.821777,1102.302856 795.764832,1104.334839 789.068726,1102.765381 
	C782.913574,1101.322754 779.632019,1096.551514 777.661133,1090.397217 
	C775.072876,1082.315063 776.114197,1074.826904 780.165344,1067.848267 
	C783.092163,1062.806519 787.902222,1059.403687 794.068787,1060.121826 
	C800.435303,1060.863159 805.476685,1064.386963 807.704590,1070.561646 
	C810.745667,1078.989990 811.244202,1087.485596 806.031433,1095.872070 
z"/>
</svg>