<svg version="1.1" id="Layer_1" xmlns="http://www.w3.org/2000/svg" xmlns:xlink="http://www.w3.org/1999/xlink" x="0px" y="0px"
	 width="100%" viewBox="0 0 1200 1200" enable-background="new 0 0 1200 1200" xml:space="preserve">
<path fill="#FFFFFF" opacity="1.000000" stroke="none" 
	d="
M675.000000,1201.000000 
	C450.000000,1201.000000 225.500000,1201.000000 1.000000,1201.000000 
	C1.000000,801.000000 1.000000,401.000000 1.000000,1.000000 
	C401.000000,1.000000 801.000000,1.000000 1201.000000,1.000000 
	C1201.000000,401.000000 1201.000000,801.000000 1201.000000,1201.000000 
	C1025.833374,1201.000000 850.666687,1201.000000 675.000000,1201.000000 
M1012.156738,322.760620 
	C994.455322,312.986420 976.795044,303.136902 959.045898,293.450165 
	C841.664612,229.388382 724.265930,165.358627 606.855042,101.351097 
	C605.022705,100.352203 602.964233,99.768219 600.284973,98.955009 
	C467.724579,171.250885 335.161407,243.541687 202.615433,315.863953 
	C198.005966,318.379059 193.567963,321.208405 188.928604,324.735260 
	C188.621719,327.354248 188.047028,329.973145 188.046265,332.592224 
	C188.003143,479.203766 188.007919,625.815308 188.007965,772.426819 
	C188.007965,773.426453 188.046082,774.427734 188.002472,775.425415 
	C187.825333,779.478149 189.235229,780.619324 193.024277,778.523254 
	C204.365555,772.249451 215.806961,766.156860 227.156570,759.897949 
	C258.722870,742.490234 290.283875,725.072632 321.785583,707.548584 
	C325.715912,705.362183 329.276489,702.511108 333.714935,700.046753 
	C421.161255,748.612732 508.606445,797.180725 596.063049,845.728333 
	C597.625244,846.595459 599.324219,847.216370 601.680786,847.986145 
	C602.281250,847.706421 602.901733,847.462708 603.479309,847.141785 
	C682.450073,803.266479 761.407227,759.366699 840.399475,715.530090 
	C849.536560,710.459534 858.867798,705.738770 868.760986,701.104309 
	C916.758789,727.593140 964.756592,754.081909 1013.501160,780.982849 
	C1013.501160,777.984375 1013.501099,776.171509 1013.501160,774.358582 
	C1013.502991,731.723694 1013.506531,689.088745 1013.506348,646.453857 
	C1013.505859,540.699341 1013.511353,434.944763 1013.441345,329.190247 
	C1013.440063,327.269714 1012.526794,325.349762 1012.156738,322.760620 
M233.608063,985.806458 
	C247.077560,1009.687073 274.160858,1015.650940 297.428162,1008.689819 
	C315.234375,1003.362549 329.852753,985.001648 328.724426,969.797058 
	C320.814209,969.797058 312.850342,969.684082 304.897552,969.929810 
	C303.816498,969.963074 302.235138,971.604797 301.828156,972.817993 
	C298.779663,981.905151 292.297485,986.789612 283.086761,987.776855 
	C273.520294,988.802185 265.266968,985.826782 259.524384,977.680908 
	C251.049637,965.659302 251.314316,941.194702 259.939697,929.222534 
	C265.552094,921.432312 273.497345,918.668945 282.661011,919.440735 
	C292.168274,920.241516 298.689392,925.250427 301.839020,934.489441 
	C302.265656,935.741028 303.777283,937.487610 304.834198,937.521545 
	C312.786926,937.777161 320.751617,937.660950 328.981750,937.660950 
	C328.981750,936.166443 329.134308,935.168884 328.950867,934.237427 
	C328.534393,932.122437 328.102661,929.989380 327.414734,927.952271 
	C321.103577,909.263245 307.517731,899.182800 288.512268,896.567749 
	C268.651367,893.835083 250.434509,898.259949 238.174530,915.109619 
	C222.217270,937.040833 222.736496,960.959351 233.608063,985.806458 
M677.035278,985.370239 
	C680.120422,972.978760 680.305420,960.607422 675.967957,948.496765 
	C669.809326,931.301331 653.283875,921.854248 637.330444,927.206360 
	C631.587585,929.132996 626.817566,933.959595 621.695679,937.400879 
	C621.695679,926.296387 621.568909,914.346069 621.769714,902.401306 
	C621.833374,898.616821 620.969727,896.942749 616.803345,897.222900 
	C611.495483,897.579773 606.127747,897.577209 600.819214,897.225281 
	C596.498901,896.938904 595.119812,898.188660 595.145935,902.725342 
	C595.341919,936.714600 595.249695,970.705383 595.262268,1004.695740 
	C595.262878,1006.298828 595.402649,1007.901917 595.494141,1009.857300 
	C600.146545,1009.857300 604.288513,1009.857361 608.430481,1009.857361 
	C612.535156,1009.857361 616.639832,1009.857300 621.286987,1009.857300 
	C621.286987,1005.323669 621.286987,1001.477051 621.286987,996.946045 
	C632.396362,1011.377258 645.080688,1014.971558 659.251160,1008.112549 
	C668.560181,1003.606689 673.738647,995.678284 677.035278,985.370239 
M943.872192,948.370728 
	C949.507812,941.538025 955.143433,934.705322 961.379395,927.144836 
	C951.780457,927.144836 943.455322,926.940186 935.153259,927.286926 
	C933.045898,927.374939 930.442139,928.723328 929.042358,930.338440 
	C922.826416,937.510254 916.978577,945.000366 910.963684,952.347656 
	C909.898254,953.649170 908.671814,954.818848 906.597595,957.034546 
	C906.597595,953.725403 906.597534,951.920227 906.597534,950.115051 
	C906.597473,934.117065 906.658020,918.118469 906.503052,902.122009 
	C906.487549,900.529114 905.217285,897.604553 904.431396,897.570740 
	C896.510498,897.229553 888.569153,897.362854 880.487915,897.362854 
	C880.487915,935.186218 880.487915,972.255859 880.487915,1009.537720 
	C889.187622,1009.537720 897.576843,1009.537720 906.597595,1009.537720 
	C906.597595,1002.778259 906.898254,996.300720 906.500122,989.866516 
	C906.194763,984.932007 908.392029,981.810547 912.192322,978.738159 
	C918.367371,988.253052 924.279724,997.483521 930.360596,1006.601624 
	C931.263306,1007.955322 932.934509,1009.662842 934.295837,1009.704224 
	C943.372314,1009.979858 952.461182,1009.847168 962.400818,1009.847168 
	C960.973877,1007.560486 960.078613,1006.037659 959.099670,1004.570679 
	C950.594482,991.826111 942.135620,979.049805 933.503235,966.391846 
	C931.914795,964.062744 931.770630,962.538513 933.766724,960.385254 
	C937.159424,956.725403 940.207825,952.746399 943.872192,948.370728 
M490.226776,963.664734 
	C490.226776,978.926819 490.226776,994.188965 490.226776,1009.565308 
	C499.371552,1009.565308 507.785034,1009.565308 516.138000,1009.565308 
	C516.138000,990.012878 516.784912,970.720947 515.916626,951.497559 
	C515.310608,938.080383 506.988068,929.380859 495.098053,926.619324 
	C481.872742,923.547668 471.702667,927.808777 463.894135,939.676880 
	C463.504578,940.268921 463.005096,940.788574 461.614105,942.505737 
	C461.614105,936.494446 461.614105,931.943359 461.614105,927.500427 
	C453.097504,927.500427 445.177399,927.500427 437.292603,927.500427 
	C437.292603,955.071716 437.292603,982.286133 437.292603,1009.579590 
	C445.947449,1009.579590 454.202484,1009.579590 462.986755,1009.579590 
	C462.986755,1007.526123 462.986023,1005.741028 462.986816,1003.955933 
	C462.993103,990.127197 462.869293,976.296753 463.050201,962.470276 
	C463.179779,952.566101 469.183044,947.165894 478.635254,947.964539 
	C485.946198,948.582153 489.726379,953.397339 490.226776,963.664734 
M739.758423,926.503357 
	C724.498535,924.562805 710.466553,926.823364 699.498840,938.776733 
	C690.836609,948.217468 688.319092,959.782715 689.108948,972.134216 
	C690.153442,988.468384 696.923706,1001.798584 712.795166,1007.801392 
	C729.798889,1014.232483 746.679443,1013.426453 760.895752,1000.451355 
	C771.418213,990.847534 773.764282,978.056519 773.078552,964.362793 
	C772.107056,944.960938 759.659241,930.402954 739.758423,926.503357 
M822.592834,1011.201477 
	C826.736938,1010.970276 830.984253,1011.246216 835.008606,1010.426819 
	C864.550842,1004.412354 877.949158,967.334656 859.540649,942.204285 
	C847.943726,926.372742 831.515198,923.586487 813.556335,927.178833 
	C797.640442,930.362488 786.681885,942.783325 783.820618,959.594360 
	C778.990723,987.971802 794.965027,1009.751648 822.592834,1011.201477 
M342.802734,950.463501 
	C341.778656,957.153076 339.924286,963.838989 339.894775,970.532959 
	C339.822235,986.978943 346.425659,1000.419067 361.938446,1007.169128 
	C377.971344,1014.145508 394.484924,1013.915466 408.726624,1002.688660 
	C423.935333,990.699402 426.310760,973.900452 422.243439,956.076843 
	C418.337921,938.962341 404.776337,927.639465 387.752686,926.096680 
	C366.443604,924.165466 351.592102,932.019775 342.802734,950.463501 
M566.753723,966.500366 
	C566.753723,960.090576 566.753723,953.680847 566.753723,946.813721 
	C572.647949,946.813721 577.737244,946.813721 582.894897,946.813721 
	C582.894897,940.096375 582.894897,933.866821 582.894897,927.121338 
	C577.483093,927.121338 572.391357,927.121338 567.415833,927.121338 
	C565.566956,916.673584 566.587585,915.861084 582.910767,914.550171 
	C583.695923,908.363647 584.493408,902.080139 585.314026,895.614197 
	C573.558350,893.855896 562.678223,892.348450 552.318726,897.917603 
	C540.587036,904.224426 540.803467,915.852051 540.330444,927.429199 
	C535.175537,927.429199 530.784058,927.429199 526.587891,927.429199 
	C526.587891,934.281738 526.587891,940.513062 526.587891,947.297180 
	C531.401062,947.297180 535.789856,947.297180 540.758118,947.297180 
	C540.758118,968.426697 540.758118,988.985596 540.758118,1009.581299 
	C549.626709,1009.581299 557.889954,1009.581299 566.753479,1009.581299 
	C566.753479,995.377319 566.753479,981.438721 566.753723,966.500366 
M863.414673,1061.846558 
	C864.929626,1064.841431 866.925537,1067.702271 867.810364,1070.872925 
	C868.543640,1073.500366 867.969971,1076.493286 867.970337,1079.324341 
	C867.971619,1089.758667 867.970825,1100.192993 867.970825,1110.641724 
	C871.464905,1110.641724 874.343994,1110.641724 877.600952,1110.641724 
	C877.600952,1108.642700 877.596375,1106.998657 877.601746,1105.354492 
	C877.639526,1093.864868 877.453674,1082.368286 877.801514,1070.888062 
	C878.017090,1063.773193 883.124512,1059.703491 890.547119,1059.849365 
	C897.893555,1059.993774 901.890076,1063.921997 902.039001,1071.381104 
	C902.158691,1077.373901 902.078125,1083.370972 902.080933,1089.366089 
	C902.084229,1096.467163 902.081665,1103.568359 902.081665,1110.642090 
	C905.656250,1110.642090 908.547180,1110.642090 911.676025,1110.642090 
	C911.676025,1096.484131 912.314026,1082.652344 911.500000,1068.906738 
	C910.653809,1054.618286 897.812439,1046.965576 885.079407,1052.711304 
	C880.956909,1054.571655 877.660522,1058.262695 873.977112,1061.123413 
	C871.371582,1055.175415 866.903198,1050.954712 859.406799,1051.002686 
	C852.316956,1051.047974 847.377930,1054.822998 842.774292,1060.250732 
	C842.774292,1057.568604 842.774292,1054.886597 842.774292,1052.295166 
	C839.565369,1052.295166 836.960449,1052.295166 834.186035,1052.295166 
	C834.186035,1071.929565 834.186035,1091.289795 834.186035,1110.685425 
	C837.281311,1110.685425 840.018494,1110.685425 843.137634,1110.685425 
	C843.137634,1108.564331 843.137268,1106.762939 843.137695,1104.961548 
	C843.140198,1094.636475 842.956055,1084.307007 843.195496,1073.987427 
	C843.462952,1062.460815 852.151306,1056.990479 863.414673,1061.846558 
M332.931152,1106.477539 
	C343.840973,1095.157227 344.076050,1081.696777 339.875854,1067.860718 
	C336.983521,1058.332886 329.905029,1052.724121 319.857849,1051.444946 
	C311.556061,1050.388306 304.994751,1053.460205 300.115234,1060.695068 
	C299.633179,1052.633667 299.416473,1044.893555 299.721741,1037.174194 
	C299.881897,1033.124756 298.476959,1031.678955 294.601501,1032.229858 
	C293.179291,1032.432007 291.731201,1032.451660 290.284119,1032.555298 
	C290.284119,1058.854126 290.284119,1084.731445 290.284119,1110.679199 
	C293.314026,1110.679199 296.041046,1110.679199 298.908661,1110.679199 
	C299.039978,1107.679077 299.157196,1105.000610 299.299866,1101.740845 
	C311.089905,1114.102051 320.535522,1115.429077 332.931152,1106.477539 
M599.102295,1051.340210 
	C585.543396,1050.868774 575.788452,1056.286743 573.616150,1065.589111 
	C574.382507,1065.852783 575.192810,1066.050049 575.931213,1066.399292 
	C579.516296,1068.094971 582.168030,1068.308472 585.146240,1064.427124 
	C589.218811,1059.119751 595.598816,1059.035645 601.666016,1060.377930 
	C606.664673,1061.484009 609.696777,1066.238770 609.070496,1071.343994 
	C608.411072,1076.719116 603.779297,1075.255981 600.521423,1076.021240 
	C593.444275,1077.683350 586.196106,1078.779175 579.294250,1080.974976 
	C573.660278,1082.767334 571.336792,1087.709961 571.113037,1093.510254 
	C570.734314,1103.325806 577.589966,1111.017090 587.497131,1112.085327 
	C595.860779,1112.987305 603.304199,1111.412842 608.848816,1103.274170 
	C609.181396,1106.640503 609.386169,1108.713257 609.588623,1110.762207 
	C612.793030,1110.762207 615.561951,1110.762207 618.879272,1110.762207 
	C618.879272,1098.254272 618.911072,1085.990356 618.870850,1073.726685 
	C618.825012,1059.768921 613.779724,1053.866943 599.102295,1051.340210 
M499.404083,1084.972900 
	C500.650482,1085.436768 502.342499,1085.534668 503.071960,1086.423096 
	C508.352905,1092.854370 513.441284,1099.443970 518.586975,1105.986328 
	C522.867432,1111.428467 526.885193,1112.513184 533.984009,1110.003296 
	C525.448059,1099.139404 516.954102,1088.328979 508.300018,1077.314697 
	C516.477478,1068.951172 524.296082,1060.954712 532.473755,1052.590942 
	C525.050537,1051.005249 519.745117,1052.155518 515.371216,1057.808838 
	C511.727417,1062.518799 507.074036,1066.443604 502.908112,1070.755249 
	C500.562164,1073.183105 498.297760,1075.689819 495.996582,1078.161133 
	C495.578064,1077.891968 495.159515,1077.622925 494.740997,1077.353882 
	C494.740997,1062.467529 494.740997,1047.581299 494.740997,1032.603638 
	C491.339111,1032.603638 488.451813,1032.603638 485.494263,1032.603638 
	C485.494263,1058.866089 485.494263,1084.753784 485.494263,1110.670166 
	C488.736908,1110.670166 491.637573,1110.670166 494.911133,1110.670166 
	C494.911133,1105.194458 495.153564,1100.044312 494.833405,1094.929321 
	C494.583252,1090.932739 495.453125,1087.742310 499.404083,1084.972900 
M406.693756,1077.062988 
	C406.426453,1075.589111 406.205841,1074.104980 405.884399,1072.642944 
	C403.444916,1061.547119 395.605286,1053.791138 384.881073,1051.834473 
	C374.173584,1049.880859 363.748291,1053.905396 358.358276,1062.706787 
	C351.935791,1073.193848 351.490753,1084.468872 355.701019,1095.830566 
	C359.547455,1106.210327 368.132141,1111.957642 379.119934,1112.139893 
	C390.980988,1112.336670 400.082245,1107.142456 403.865601,1096.464111 
	C405.917908,1090.671509 405.892578,1084.142822 406.693756,1077.062988 
M422.616364,1063.218018 
	C417.966827,1070.649902 417.320068,1078.885376 418.133972,1087.281250 
	C419.480347,1101.169434 429.385101,1111.398804 441.805359,1112.072021 
	C457.102112,1112.901123 467.659058,1105.192749 470.553253,1090.376709 
	C471.490082,1085.580933 471.360260,1080.445923 470.918884,1075.538086 
	C469.904510,1064.258667 462.059540,1054.911743 451.994141,1052.236084 
	C440.652283,1049.221069 430.207825,1052.954224 422.616364,1063.218018 
M813.091370,1060.476562 
	C805.773193,1052.123413 796.498657,1049.616455 786.018250,1052.242554 
	C775.882874,1054.782227 769.363708,1061.849121 767.677185,1071.871338 
	C766.500427,1078.864258 766.732117,1086.479370 768.168274,1093.437988 
	C770.417297,1104.335449 779.729492,1111.441895 790.137756,1112.066284 
	C803.416077,1112.862549 812.762207,1107.604004 817.208374,1096.165405 
	C821.958313,1083.945068 821.106018,1072.086182 813.091370,1060.476562 
M749.038879,1102.473267 
	C755.259155,1094.366821 755.976074,1084.988403 754.811035,1075.398560 
	C753.103088,1061.340332 742.927795,1051.937500 729.267212,1051.259644 
	C716.331543,1050.617798 705.661743,1059.046997 702.717957,1072.807983 
	C701.794312,1077.125488 701.683777,1081.747681 701.997803,1086.173950 
	C702.797852,1097.450195 707.723145,1106.293701 718.698730,1110.611328 
	C729.432617,1114.833984 740.276428,1111.923828 749.038879,1102.473267 
M665.779236,1057.609253 
	C665.779236,1075.314575 665.779236,1093.020020 665.779236,1110.650269 
	C669.320557,1110.650269 672.052673,1110.650269 675.085144,1110.650269 
	C675.085144,1099.675903 675.083374,1089.054443 675.085571,1078.433105 
	C675.088440,1064.580566 680.152832,1059.824341 693.920288,1060.714600 
	C694.209656,1060.733398 694.515686,1060.495728 695.186890,1060.230225 
	C695.186890,1057.479248 695.186890,1054.592285 695.186890,1051.462036 
	C686.570801,1050.289673 679.925720,1052.874634 675.067444,1060.709839 
	C674.904724,1057.334351 674.787048,1054.893799 674.665527,1052.374512 
	C671.576416,1052.374512 668.860535,1052.374512 665.992249,1052.374512 
	C665.909912,1054.022949 665.844666,1055.330933 665.779236,1057.609253 
M237.379547,1073.047729 
	C228.114716,1073.047729 218.849899,1073.047729 209.512192,1073.047729 
	C209.512192,1076.325317 209.512192,1078.891968 209.512192,1081.554932 
	C221.074142,1081.554932 232.296600,1081.554932 243.567276,1081.554932 
	C243.567276,1078.618530 243.567276,1076.047241 243.567276,1073.047852 
	C241.610764,1073.047852 239.975052,1073.047852 237.379547,1073.047729 
M982.460510,1081.914062 
	C985.562500,1081.914062 988.664551,1081.914062 991.925903,1081.914062 
	C991.925903,1078.707642 991.925903,1076.140747 991.925903,1073.445312 
	C980.474609,1073.445312 969.317810,1073.445312 958.282837,1073.445312 
	C958.282837,1076.418457 958.282837,1078.988770 958.282837,1081.913940 
	C966.257263,1081.913940 973.865173,1081.913940 982.460510,1081.914062 
z"/>
<path fill="#F0F0F0" opacity="1.000000" stroke="none" 
	d="
M333.008392,699.967957 
	C329.276489,702.511108 325.715912,705.362183 321.785583,707.548584 
	C290.283875,725.072632 258.722870,742.490234 227.156570,759.897949 
	C215.806961,766.156860 204.365555,772.249451 193.024277,778.523254 
	C189.235229,780.619324 187.825333,779.478149 188.002472,775.425415 
	C188.046082,774.427734 188.007965,773.426453 188.007965,772.426819 
	C188.007919,625.815308 188.003143,479.203766 188.046265,332.592224 
	C188.047028,329.973145 188.621719,327.354248 189.332321,324.393799 
	C235.889053,348.362122 282.026764,372.701172 328.259399,396.858521 
	C329.862366,397.696075 332.796265,397.410431 334.467590,396.486511 
	C386.969086,367.463470 439.378052,338.273132 491.828918,309.158386 
	C528.146423,288.998993 564.504944,268.913361 601.175842,248.946442 
	C690.955872,298.806580 780.405212,348.515045 870.491272,398.577362 
	C855.245789,407.049011 840.733765,415.117981 826.217224,423.178802 
	C751.064758,464.909729 675.911072,506.638580 600.423645,548.246033 
	C510.581482,498.416809 421.073578,448.709686 330.999695,398.688263 
	C330.999695,400.880890 330.999725,402.481598 330.999725,404.082306 
	C330.999725,440.724274 330.999725,477.366272 330.999725,514.008240 
	C330.999725,573.967896 330.980042,633.927551 331.084229,693.887024 
	C331.087769,695.915100 332.338806,697.941040 333.008392,699.967957 
z"/>
<path fill="#708090" opacity="1.000000" stroke="none" 
	d="
M600.757874,548.368164 
	C675.911072,506.638580 751.064758,464.909729 826.217224,423.178802 
	C840.733765,415.117981 855.245789,407.049011 870.491272,398.577362 
	C780.405212,348.515045 690.955872,298.806580 601.216675,248.492828 
	C600.954956,198.255249 600.983093,148.622940 601.011292,98.990623 
	C602.964233,99.768219 605.022705,100.352203 606.855042,101.351097 
	C724.265930,165.358627 841.664612,229.388382 959.045898,293.450165 
	C976.795044,303.136902 994.455322,312.986420 1012.000000,323.459747 
	C1011.298401,324.530060 1010.783813,324.958954 1010.204163,325.264191 
	C965.448608,348.834503 920.719849,372.456512 875.870422,395.846954 
	C872.023926,397.853027 870.895996,400.018433 870.901550,404.213470 
	C871.028931,500.671753 871.020813,597.130310 870.878784,693.588501 
	C870.875244,696.012329 869.072632,698.433472 868.109070,700.855896 
	C858.867798,705.738770 849.536560,710.459534 840.399475,715.530090 
	C761.407227,759.366699 682.450073,803.266479 603.479309,847.141785 
	C602.901733,847.462708 602.281250,847.706421 601.336670,847.503906 
	C600.995422,749.130554 600.999451,651.239502 600.990967,553.348389 
	C600.990784,551.688293 600.838928,550.028259 600.757874,548.368164 
z"/>
<path fill="#000000" opacity="1.000000" stroke="none" 
	d="
M600.423645,548.246033 
	C600.838928,550.028259 600.990784,551.688293 600.990967,553.348389 
	C600.999451,651.239502 600.995422,749.130554 600.976013,847.486938 
	C599.324219,847.216370 597.625244,846.595459 596.063049,845.728333 
	C508.606445,797.180725 421.161255,748.612732 333.361664,700.007324 
	C332.338806,697.941040 331.087769,695.915100 331.084229,693.887024 
	C330.980042,633.927551 330.999725,573.967896 330.999725,514.008240 
	C330.999725,477.366272 330.999725,440.724274 330.999725,404.082306 
	C330.999725,402.481598 330.999695,400.880890 330.999695,398.688263 
	C421.073578,448.709686 510.581482,498.416809 600.423645,548.246033 
M404.748474,615.831665 
	C400.319794,613.464294 395.891113,611.096924 390.991150,608.477661 
	C390.991150,621.408691 390.874298,633.395264 391.130280,645.373779 
	C391.164581,646.978088 392.716980,649.195740 394.187927,650.019714 
	C404.469849,655.778625 414.909424,661.256714 425.318726,666.786621 
	C426.231018,667.271240 427.288208,667.483154 428.524414,667.906006 
	C428.524414,655.594666 428.663208,643.772339 428.374817,631.960449 
	C428.331512,630.186768 426.694122,627.783142 425.101105,626.833618 
	C418.691895,623.013672 412.010529,619.650330 404.748474,615.831665 
M470.503906,580.898376 
	C469.157776,580.185425 467.811646,579.472473 465.991150,578.508240 
	C465.991150,591.423279 465.874176,603.407104 466.130615,615.382935 
	C466.164917,616.985535 467.722534,619.199402 469.194458,620.023743 
	C479.474274,625.780945 489.911438,631.257690 500.318329,636.786316 
	C501.230530,637.270935 502.287415,637.483215 503.524475,637.906616 
	C503.524475,625.764709 503.404083,614.113037 503.603668,602.466919 
	C503.657867,599.305603 502.481873,597.783020 499.787231,596.399841 
	C490.192047,591.474182 480.733215,586.282959 470.503906,580.898376 
M465.991089,669.504639 
	C465.991089,676.319885 466.135651,683.139771 465.919861,689.948181 
	C465.833649,692.667847 466.737610,693.987244 469.146423,695.226379 
	C479.462219,700.532715 489.637268,706.112366 499.881836,711.558105 
	C500.937469,712.119263 502.114105,712.452759 503.524139,713.005432 
	C503.524139,700.447449 503.570648,688.480835 503.456268,676.515686 
	C503.444092,675.238403 502.854828,673.312439 501.921082,672.797485 
	C490.222412,666.345459 478.410797,660.098267 465.991089,653.458008 
	C465.991089,658.988403 465.991089,663.747681 465.991089,669.504639 
M390.991089,574.332153 
	C390.058044,579.261353 392.090942,581.975281 396.691010,584.166321 
	C406.257568,588.722778 415.466125,594.029663 424.837830,598.997986 
	C425.892365,599.557007 427.050171,599.921326 428.523956,600.524963 
	C428.523956,587.763062 428.578918,575.632629 428.437561,563.504333 
	C428.423676,562.312927 427.505219,560.587585 426.498840,560.035339 
	C414.918762,553.680237 403.240479,547.504089 391.550049,541.259949 
	C391.256378,541.909729 391.028748,542.178955 391.028076,542.448730 
	C391.002808,552.755676 390.998352,563.062744 390.991089,574.332153 
z"/>
<path fill="#000000" opacity="1.000000" stroke="none" 
	d="
M868.435059,700.980103 
	C869.072632,698.433472 870.875244,696.012329 870.878784,693.588501 
	C871.020813,597.130310 871.028931,500.671753 870.901550,404.213470 
	C870.895996,400.018433 872.023926,397.853027 875.870422,395.846954 
	C920.719849,372.456512 965.448608,348.834503 1010.204163,325.264191 
	C1010.783813,324.958954 1011.298401,324.530060 1011.941162,323.794189 
	C1012.526794,325.349762 1013.440063,327.269714 1013.441345,329.190247 
	C1013.511353,434.944763 1013.505859,540.699341 1013.506348,646.453857 
	C1013.506531,689.088745 1013.502991,731.723694 1013.501160,774.358582 
	C1013.501099,776.171509 1013.501160,777.984375 1013.501160,780.982849 
	C964.756592,754.081909 916.758789,727.593140 868.435059,700.980103 
z"/>
<path fill="#000000" opacity="1.000000" stroke="none" 
	d="
M600.648132,98.972816 
	C600.983093,148.622940 600.954956,198.255249 600.885925,248.341171 
	C564.504944,268.913361 528.146423,288.998993 491.828918,309.158386 
	C439.378052,338.273132 386.969086,367.463470 334.467590,396.486511 
	C332.796265,397.410431 329.862366,397.696075 328.259399,396.858521 
	C282.026764,372.701172 235.889053,348.362122 189.393036,323.971832 
	C193.567963,321.208405 198.005966,318.379059 202.615433,315.863953 
	C335.161407,243.541687 467.724579,171.250885 600.648132,98.972816 
z"/>
<path fill="#728191" opacity="1.000000" stroke="none" 
	d="
M233.408630,985.495056 
	C222.736496,960.959351 222.217270,937.040833 238.174530,915.109619 
	C250.434509,898.259949 268.651367,893.835083 288.512268,896.567749 
	C307.517731,899.182800 321.103577,909.263245 327.414734,927.952271 
	C328.102661,929.989380 328.534393,932.122437 328.950867,934.237427 
	C329.134308,935.168884 328.981750,936.166443 328.981750,937.660950 
	C320.751617,937.660950 312.786926,937.777161 304.834198,937.521545 
	C303.777283,937.487610 302.265656,935.741028 301.839020,934.489441 
	C298.689392,925.250427 292.168274,920.241516 282.661011,919.440735 
	C273.497345,918.668945 265.552094,921.432312 259.939697,929.222534 
	C251.314316,941.194702 251.049637,965.659302 259.524384,977.680908 
	C265.266968,985.826782 273.520294,988.802185 283.086761,987.776855 
	C292.297485,986.789612 298.779663,981.905151 301.828156,972.817993 
	C302.235138,971.604797 303.816498,969.963074 304.897552,969.929810 
	C312.850342,969.684082 320.814209,969.797058 328.724426,969.797058 
	C329.852753,985.001648 315.234375,1003.362549 297.428162,1008.689819 
	C274.160858,1015.650940 247.077560,1009.687073 233.408630,985.495056 
z"/>
<path fill="#738392" opacity="1.000000" stroke="none" 
	d="
M676.950745,985.763794 
	C673.738647,995.678284 668.560181,1003.606689 659.251160,1008.112549 
	C645.080688,1014.971558 632.396362,1011.377258 621.286987,996.946045 
	C621.286987,1001.477051 621.286987,1005.323669 621.286987,1009.857300 
	C616.639832,1009.857300 612.535156,1009.857361 608.430481,1009.857361 
	C604.288513,1009.857361 600.146545,1009.857300 595.494141,1009.857300 
	C595.402649,1007.901917 595.262878,1006.298828 595.262268,1004.695740 
	C595.249695,970.705383 595.341919,936.714600 595.145935,902.725342 
	C595.119812,898.188660 596.498901,896.938904 600.819214,897.225281 
	C606.127747,897.577209 611.495483,897.579773 616.803345,897.222900 
	C620.969727,896.942749 621.833374,898.616821 621.769714,902.401306 
	C621.568909,914.346069 621.695679,926.296387 621.695679,937.400879 
	C626.817566,933.959595 631.587585,929.132996 637.330444,927.206360 
	C653.283875,921.854248 669.809326,931.301331 675.967957,948.496765 
	C680.305420,960.607422 680.120422,972.978760 676.950745,985.763794 
M648.263672,952.355530 
	C641.173828,944.084900 629.432556,944.503723 624.390198,953.704041 
	C619.185059,963.201294 619.255737,973.229004 624.219055,982.906494 
	C627.087402,988.499207 632.054810,990.788940 638.345703,990.282532 
	C644.371704,989.797485 648.253235,986.444885 650.153381,980.999756 
	C653.461304,971.520325 653.492981,962.084839 648.263672,952.355530 
z"/>
<path fill="#728292" opacity="1.000000" stroke="none" 
	d="
M943.636597,948.636108 
	C940.207825,952.746399 937.159424,956.725403 933.766724,960.385254 
	C931.770630,962.538513 931.914795,964.062744 933.503235,966.391846 
	C942.135620,979.049805 950.594482,991.826111 959.099670,1004.570679 
	C960.078613,1006.037659 960.973877,1007.560486 962.400818,1009.847168 
	C952.461182,1009.847168 943.372314,1009.979858 934.295837,1009.704224 
	C932.934509,1009.662842 931.263306,1007.955322 930.360596,1006.601624 
	C924.279724,997.483521 918.367371,988.253052 912.192322,978.738159 
	C908.392029,981.810547 906.194763,984.932007 906.500122,989.866516 
	C906.898254,996.300720 906.597595,1002.778259 906.597595,1009.537720 
	C897.576843,1009.537720 889.187622,1009.537720 880.487915,1009.537720 
	C880.487915,972.255859 880.487915,935.186218 880.487915,897.362854 
	C888.569153,897.362854 896.510498,897.229553 904.431396,897.570740 
	C905.217285,897.604553 906.487549,900.529114 906.503052,902.122009 
	C906.658020,918.118469 906.597473,934.117065 906.597534,950.115051 
	C906.597534,951.920227 906.597595,953.725403 906.597595,957.034546 
	C908.671814,954.818848 909.898254,953.649170 910.963684,952.347656 
	C916.978577,945.000366 922.826416,937.510254 929.042358,930.338440 
	C930.442139,928.723328 933.045898,927.374939 935.153259,927.286926 
	C943.455322,926.940186 951.780457,927.144836 961.379395,927.144836 
	C955.143433,934.705322 949.507812,941.538025 943.636597,948.636108 
z"/>
<path fill="#728292" opacity="1.000000" stroke="none" 
	d="
M490.223022,963.192505 
	C489.726379,953.397339 485.946198,948.582153 478.635254,947.964539 
	C469.183044,947.165894 463.179779,952.566101 463.050201,962.470276 
	C462.869293,976.296753 462.993103,990.127197 462.986816,1003.955933 
	C462.986023,1005.741028 462.986755,1007.526123 462.986755,1009.579590 
	C454.202484,1009.579590 445.947449,1009.579590 437.292603,1009.579590 
	C437.292603,982.286133 437.292603,955.071716 437.292603,927.500427 
	C445.177399,927.500427 453.097504,927.500427 461.614105,927.500427 
	C461.614105,931.943359 461.614105,936.494446 461.614105,942.505737 
	C463.005096,940.788574 463.504578,940.268921 463.894135,939.676880 
	C471.702667,927.808777 481.872742,923.547668 495.098053,926.619324 
	C506.988068,929.380859 515.310608,938.080383 515.916626,951.497559 
	C516.784912,970.720947 516.138000,990.012878 516.138000,1009.565308 
	C507.785034,1009.565308 499.371552,1009.565308 490.226776,1009.565308 
	C490.226776,994.188965 490.226776,978.926819 490.223022,963.192505 
z"/>
<path fill="#718191" opacity="1.000000" stroke="none" 
	d="
M740.179749,926.613159 
	C759.659241,930.402954 772.107056,944.960938 773.078552,964.362793 
	C773.764282,978.056519 771.418213,990.847534 760.895752,1000.451355 
	C746.679443,1013.426453 729.798889,1014.232483 712.795166,1007.801392 
	C696.923706,1001.798584 690.153442,988.468384 689.108948,972.134216 
	C688.319092,959.782715 690.836609,948.217468 699.498840,938.776733 
	C710.466553,926.823364 724.498535,924.562805 740.179749,926.613159 
M728.118896,990.838684 
	C734.476685,991.739624 739.931519,990.088318 742.964050,984.163513 
	C748.130127,974.070496 748.245605,963.610718 743.171143,953.478699 
	C739.561035,946.270752 731.057617,943.870605 724.400024,947.954041 
	C715.881836,953.178833 715.644348,961.861511 715.825317,970.498108 
	C715.991577,978.436401 717.553528,985.792908 725.461731,989.935120 
	C726.046265,990.241272 726.707947,990.400330 728.118896,990.838684 
z"/>
<path fill="#718191" opacity="1.000000" stroke="none" 
	d="
M822.115234,1011.178467 
	C794.965027,1009.751648 778.990723,987.971802 783.820618,959.594360 
	C786.681885,942.783325 797.640442,930.362488 813.556335,927.178833 
	C831.515198,923.586487 847.943726,926.372742 859.540649,942.204285 
	C877.949158,967.334656 864.550842,1004.412354 835.008606,1010.426819 
	C830.984253,1011.246216 826.736938,1010.970276 822.115234,1011.178467 
M810.340149,976.711548 
	C810.588989,977.677795 810.794617,978.657654 811.093567,979.608154 
	C813.393677,986.920776 818.397644,991.007935 825.049927,991.033081 
	C831.874207,991.058838 836.606873,987.265137 839.015686,979.726746 
	C841.418518,972.206909 841.342957,964.639771 838.921204,957.165344 
	C836.574890,949.923889 831.162048,945.848999 824.659363,946.090515 
	C818.217773,946.329773 812.545654,950.729004 811.156372,958.047791 
	C810.057068,963.838745 810.430969,969.909485 810.340149,976.711548 
z"/>
<path fill="#718191" opacity="1.000000" stroke="none" 
	d="
M342.928223,950.099854 
	C351.592102,932.019775 366.443604,924.165466 387.752686,926.096680 
	C404.776337,927.639465 418.337921,938.962341 422.243439,956.076843 
	C426.310760,973.900452 423.935333,990.699402 408.726624,1002.688660 
	C394.484924,1013.915466 377.971344,1014.145508 361.938446,1007.169128 
	C346.425659,1000.419067 339.822235,986.978943 339.894775,970.532959 
	C339.924286,963.838989 341.778656,957.153076 342.928223,950.099854 
M375.933777,989.940735 
	C383.920624,992.454102 390.242920,990.708984 393.574158,984.069702 
	C398.727631,973.798706 398.910645,963.090393 393.394867,952.909180 
	C388.932953,944.673401 377.764069,943.400574 371.886993,950.658386 
	C369.034058,954.181641 367.104828,959.173218 366.578186,963.711304 
	C365.450653,973.427307 365.702240,983.214050 375.933777,989.940735 
z"/>
<path fill="#728292" opacity="1.000000" stroke="none" 
	d="
M566.753601,967.000244 
	C566.753479,981.438721 566.753479,995.377319 566.753479,1009.581299 
	C557.889954,1009.581299 549.626709,1009.581299 540.758118,1009.581299 
	C540.758118,988.985596 540.758118,968.426697 540.758118,947.297180 
	C535.789856,947.297180 531.401062,947.297180 526.587891,947.297180 
	C526.587891,940.513062 526.587891,934.281738 526.587891,927.429199 
	C530.784058,927.429199 535.175537,927.429199 540.330444,927.429199 
	C540.803467,915.852051 540.587036,904.224426 552.318726,897.917603 
	C562.678223,892.348450 573.558350,893.855896 585.314026,895.614197 
	C584.493408,902.080139 583.695923,908.363647 582.910767,914.550171 
	C566.587585,915.861084 565.566956,916.673584 567.415833,927.121338 
	C572.391357,927.121338 577.483093,927.121338 582.894897,927.121338 
	C582.894897,933.866821 582.894897,940.096375 582.894897,946.813721 
	C577.737244,946.813721 572.647949,946.813721 566.753723,946.813721 
	C566.753723,953.680847 566.753723,960.090576 566.753601,967.000244 
z"/>
<path fill="#738392" opacity="1.000000" stroke="none" 
	d="
M863.097534,1061.609375 
	C852.151306,1056.990479 843.462952,1062.460815 843.195496,1073.987427 
	C842.956055,1084.307007 843.140198,1094.636475 843.137695,1104.961548 
	C843.137268,1106.762939 843.137634,1108.564331 843.137634,1110.685425 
	C840.018494,1110.685425 837.281311,1110.685425 834.186035,1110.685425 
	C834.186035,1091.289795 834.186035,1071.929565 834.186035,1052.295166 
	C836.960449,1052.295166 839.565369,1052.295166 842.774292,1052.295166 
	C842.774292,1054.886597 842.774292,1057.568604 842.774292,1060.250732 
	C847.377930,1054.822998 852.316956,1051.047974 859.406799,1051.002686 
	C866.903198,1050.954712 871.371582,1055.175415 873.977112,1061.123413 
	C877.660522,1058.262695 880.956909,1054.571655 885.079407,1052.711304 
	C897.812439,1046.965576 910.653809,1054.618286 911.500000,1068.906738 
	C912.314026,1082.652344 911.676025,1096.484131 911.676025,1110.642090 
	C908.547180,1110.642090 905.656250,1110.642090 902.081665,1110.642090 
	C902.081665,1103.568359 902.084229,1096.467163 902.080933,1089.366089 
	C902.078125,1083.370972 902.158691,1077.373901 902.039001,1071.381104 
	C901.890076,1063.921997 897.893555,1059.993774 890.547119,1059.849365 
	C883.124512,1059.703491 878.017090,1063.773193 877.801514,1070.888062 
	C877.453674,1082.368286 877.639526,1093.864868 877.601746,1105.354492 
	C877.596375,1106.998657 877.600952,1108.642700 877.600952,1110.641724 
	C874.343994,1110.641724 871.464905,1110.641724 867.970825,1110.641724 
	C867.970825,1100.192993 867.971619,1089.758667 867.970337,1079.324341 
	C867.969971,1076.493286 868.543640,1073.500366 867.810364,1070.872925 
	C866.925537,1067.702271 864.929626,1064.841431 863.097534,1061.609375 
z"/>
<path fill="#738392" opacity="1.000000" stroke="none" 
	d="
M332.657928,1106.713135 
	C320.535522,1115.429077 311.089905,1114.102051 299.299866,1101.740845 
	C299.157196,1105.000610 299.039978,1107.679077 298.908661,1110.679199 
	C296.041046,1110.679199 293.314026,1110.679199 290.284119,1110.679199 
	C290.284119,1084.731445 290.284119,1058.854126 290.284119,1032.555298 
	C291.731201,1032.451660 293.179291,1032.432007 294.601501,1032.229858 
	C298.476959,1031.678955 299.881897,1033.124756 299.721741,1037.174194 
	C299.416473,1044.893555 299.633179,1052.633667 300.115234,1060.695068 
	C304.994751,1053.460205 311.556061,1050.388306 319.857849,1051.444946 
	C329.905029,1052.724121 336.983521,1058.332886 339.875854,1067.860718 
	C344.076050,1081.696777 343.840973,1095.157227 332.657928,1106.713135 
M315.563629,1059.918213 
	C308.552826,1059.945190 303.952881,1063.577881 301.486053,1069.854858 
	C298.385773,1077.743896 298.516693,1085.802734 301.508270,1093.689575 
	C303.953278,1100.135620 309.655884,1104.013794 316.103363,1103.774170 
	C322.911713,1103.521118 327.693970,1100.079590 330.268311,1093.784302 
	C333.345978,1086.258179 333.547882,1078.524170 330.812134,1070.922729 
	C328.440399,1064.332642 323.960144,1059.999023 315.563629,1059.918213 
z"/>
<path fill="#758494" opacity="1.000000" stroke="none" 
	d="
M599.528137,1051.401978 
	C613.779724,1053.866943 618.825012,1059.768921 618.870850,1073.726685 
	C618.911072,1085.990356 618.879272,1098.254272 618.879272,1110.762207 
	C615.561951,1110.762207 612.793030,1110.762207 609.588623,1110.762207 
	C609.386169,1108.713257 609.181396,1106.640503 608.848816,1103.274170 
	C603.304199,1111.412842 595.860779,1112.987305 587.497131,1112.085327 
	C577.589966,1111.017090 570.734314,1103.325806 571.113037,1093.510254 
	C571.336792,1087.709961 573.660278,1082.767334 579.294250,1080.974976 
	C586.196106,1078.779175 593.444275,1077.683350 600.521423,1076.021240 
	C603.779297,1075.255981 608.411072,1076.719116 609.070496,1071.343994 
	C609.696777,1066.238770 606.664673,1061.484009 601.666016,1060.377930 
	C595.598816,1059.035645 589.218811,1059.119751 585.146240,1064.427124 
	C582.168030,1068.308472 579.516296,1068.094971 575.931213,1066.399292 
	C575.192810,1066.050049 574.382507,1065.852783 573.616150,1065.589111 
	C575.788452,1056.286743 585.543396,1050.868774 599.528137,1051.401978 
M600.495728,1084.044312 
	C596.084290,1084.830444 591.570618,1085.264404 587.291626,1086.506714 
	C583.392395,1087.638794 580.743042,1090.310791 580.896179,1094.935791 
	C581.045898,1099.460083 583.547180,1101.839966 587.601624,1103.127197 
	C601.354431,1107.493286 611.131409,1097.922485 608.624573,1082.400635 
	C606.194946,1082.926880 603.769958,1083.452026 600.495728,1084.044312 
z"/>
<path fill="#768595" opacity="1.000000" stroke="none" 
	d="
M499.139099,1085.222412 
	C495.453125,1087.742310 494.583252,1090.932739 494.833405,1094.929321 
	C495.153564,1100.044312 494.911133,1105.194458 494.911133,1110.670166 
	C491.637573,1110.670166 488.736908,1110.670166 485.494263,1110.670166 
	C485.494263,1084.753784 485.494263,1058.866089 485.494263,1032.603638 
	C488.451813,1032.603638 491.339111,1032.603638 494.740997,1032.603638 
	C494.740997,1047.581299 494.740997,1062.467529 494.740997,1077.353882 
	C495.159515,1077.622925 495.578064,1077.891968 495.996582,1078.161133 
	C498.297760,1075.689819 500.562164,1073.183105 502.908112,1070.755249 
	C507.074036,1066.443604 511.727417,1062.518799 515.371216,1057.808838 
	C519.745117,1052.155518 525.050537,1051.005249 532.473755,1052.590942 
	C524.296082,1060.954712 516.477478,1068.951172 508.300018,1077.314697 
	C516.954102,1088.328979 525.448059,1099.139404 533.984009,1110.003296 
	C526.885193,1112.513184 522.867432,1111.428467 518.586975,1105.986328 
	C513.441284,1099.443970 508.352905,1092.854370 503.071960,1086.423096 
	C502.342499,1085.534668 500.650482,1085.436768 499.139099,1085.222412 
z"/>
<path fill="#748393" opacity="1.000000" stroke="none" 
	d="
M406.749084,1077.504639 
	C405.892578,1084.142822 405.917908,1090.671509 403.865601,1096.464111 
	C400.082245,1107.142456 390.980988,1112.336670 379.119934,1112.139893 
	C368.132141,1111.957642 359.547455,1106.210327 355.701019,1095.830566 
	C351.490753,1084.468872 351.935791,1073.193848 358.358276,1062.706787 
	C363.748291,1053.905396 374.173584,1049.880859 384.881073,1051.834473 
	C395.605286,1053.791138 403.444916,1061.547119 405.884399,1072.642944 
	C406.205841,1074.104980 406.426453,1075.589111 406.749084,1077.504639 
M387.540863,1061.604492 
	C377.302979,1057.499878 368.436188,1060.984375 364.774689,1070.795044 
	C361.934540,1078.404907 362.012024,1086.185059 365.078888,1093.682861 
	C369.669769,1104.906494 384.425781,1107.307983 392.138855,1098.348877 
	C399.665558,1089.606079 399.042603,1067.931763 387.540863,1061.604492 
z"/>
<path fill="#748393" opacity="1.000000" stroke="none" 
	d="
M422.810547,1062.907959 
	C430.207825,1052.954224 440.652283,1049.221069 451.994141,1052.236084 
	C462.059540,1054.911743 469.904510,1064.258667 470.918884,1075.538086 
	C471.360260,1080.445923 471.490082,1085.580933 470.553253,1090.376709 
	C467.659058,1105.192749 457.102112,1112.901123 441.805359,1112.072021 
	C429.385101,1111.398804 419.480347,1101.169434 418.133972,1087.281250 
	C417.320068,1078.885376 417.966827,1070.649902 422.810547,1062.907959 
M447.894012,1060.087524 
	C436.756958,1059.515503 430.557465,1063.767090 428.389130,1074.163330 
	C426.949341,1081.066650 426.923157,1088.098145 430.150513,1094.661499 
	C435.489563,1105.519287 450.644104,1107.200562 457.267090,1097.402588 
	C459.587616,1093.969727 460.971527,1089.566772 461.645844,1085.421753 
	C463.571411,1073.585083 458.251770,1063.736084 447.894012,1060.087524 
z"/>
<path fill="#748393" opacity="1.000000" stroke="none" 
	d="
M813.323486,1060.755859 
	C821.106018,1072.086182 821.958313,1083.945068 817.208374,1096.165405 
	C812.762207,1107.604004 803.416077,1112.862549 790.137756,1112.066284 
	C779.729492,1111.441895 770.417297,1104.335449 768.168274,1093.437988 
	C766.732117,1086.479370 766.500427,1078.864258 767.677185,1071.871338 
	C769.363708,1061.849121 775.882874,1054.782227 786.018250,1052.242554 
	C796.498657,1049.616455 805.773193,1052.123413 813.323486,1060.755859 
M790.198181,1103.509521 
	C798.552063,1104.267578 804.532104,1101.409912 807.535583,1094.738525 
	C811.267029,1086.450439 811.357422,1077.898926 807.768799,1069.583130 
	C805.039978,1063.259644 800.062927,1059.847656 792.886292,1059.889648 
	C785.660461,1059.931885 780.865356,1063.591553 778.223694,1069.908447 
	C775.100220,1077.377197 775.023926,1085.131958 777.817261,1092.777588 
	C779.821167,1098.262573 783.429321,1102.134521 790.198181,1103.509521 
z"/>
<path fill="#748393" opacity="1.000000" stroke="none" 
	d="
M748.816895,1102.756226 
	C740.276428,1111.923828 729.432617,1114.833984 718.698730,1110.611328 
	C707.723145,1106.293701 702.797852,1097.450195 701.997803,1086.173950 
	C701.683777,1081.747681 701.794312,1077.125488 702.717957,1072.807983 
	C705.661743,1059.046997 716.331543,1050.617798 729.267212,1051.259644 
	C742.927795,1051.937500 753.103088,1061.340332 754.811035,1075.398560 
	C755.976074,1084.988403 755.259155,1094.366821 748.816895,1102.756226 
M711.305725,1085.021118 
	C711.800293,1087.289062 712.117615,1089.613770 712.821655,1091.814697 
	C715.265930,1099.455322 720.731079,1103.655640 728.170349,1103.804443 
	C735.596680,1103.952881 741.469421,1099.505981 744.051025,1091.798584 
	C746.470093,1084.576538 746.253113,1077.390503 743.494324,1070.342407 
	C740.767578,1063.375977 735.414551,1059.862915 728.093933,1059.920288 
	C721.139771,1059.974731 715.664429,1063.488037 713.399536,1070.493530 
	C711.997314,1074.830688 711.900696,1079.589966 711.305725,1085.021118 
z"/>
<path fill="#728292" opacity="1.000000" stroke="none" 
	d="
M665.779297,1057.124023 
	C665.844666,1055.330933 665.909912,1054.022949 665.992249,1052.374512 
	C668.860535,1052.374512 671.576416,1052.374512 674.665527,1052.374512 
	C674.787048,1054.893799 674.904724,1057.334351 675.067444,1060.709839 
	C679.925720,1052.874634 686.570801,1050.289673 695.186890,1051.462036 
	C695.186890,1054.592285 695.186890,1057.479248 695.186890,1060.230225 
	C694.515686,1060.495728 694.209656,1060.733398 693.920288,1060.714600 
	C680.152832,1059.824341 675.088440,1064.580566 675.085571,1078.433105 
	C675.083374,1089.054443 675.085144,1099.675903 675.085144,1110.650269 
	C672.052673,1110.650269 669.320557,1110.650269 665.779236,1110.650269 
	C665.779236,1093.020020 665.779236,1075.314575 665.779297,1057.124023 
z"/>
<path fill="#768595" opacity="1.000000" stroke="none" 
	d="
M237.859436,1073.047852 
	C239.975052,1073.047852 241.610764,1073.047852 243.567276,1073.047852 
	C243.567276,1076.047241 243.567276,1078.618530 243.567276,1081.554932 
	C232.296600,1081.554932 221.074142,1081.554932 209.512192,1081.554932 
	C209.512192,1078.891968 209.512192,1076.325317 209.512192,1073.047729 
	C218.849899,1073.047729 228.114716,1073.047729 237.859436,1073.047852 
z"/>
<path fill="#768595" opacity="1.000000" stroke="none" 
	d="
M981.966797,1081.914062 
	C973.865173,1081.913940 966.257263,1081.913940 958.282837,1081.913940 
	C958.282837,1078.988770 958.282837,1076.418457 958.282837,1073.445312 
	C969.317810,1073.445312 980.474609,1073.445312 991.925903,1073.445312 
	C991.925903,1076.140747 991.925903,1078.707642 991.925903,1081.914062 
	C988.664551,1081.914062 985.562500,1081.914062 981.966797,1081.914062 
z"/>
<path fill="#FAFAFA" opacity="1.000000" stroke="none" 
	d="
M405.089081,615.974976 
	C412.010529,619.650330 418.691895,623.013672 425.101105,626.833618 
	C426.694122,627.783142 428.331512,630.186768 428.374817,631.960449 
	C428.663208,643.772339 428.524414,655.594666 428.524414,667.906006 
	C427.288208,667.483154 426.231018,667.271240 425.318726,666.786621 
	C414.909424,661.256714 404.469849,655.778625 394.187927,650.019714 
	C392.716980,649.195740 391.164581,646.978088 391.130280,645.373779 
	C390.874298,633.395264 390.991150,621.408691 390.991150,608.477661 
	C395.891113,611.096924 400.319794,613.464294 405.089081,615.974976 
z"/>
<path fill="#FAFAFA" opacity="1.000000" stroke="none" 
	d="
M470.863312,581.045349 
	C480.733215,586.282959 490.192047,591.474182 499.787231,596.399841 
	C502.481873,597.783020 503.657867,599.305603 503.603668,602.466919 
	C503.404083,614.113037 503.524475,625.764709 503.524475,637.906616 
	C502.287415,637.483215 501.230530,637.270935 500.318329,636.786316 
	C489.911438,631.257690 479.474274,625.780945 469.194458,620.023743 
	C467.722534,619.199402 466.164917,616.985535 466.130615,615.382935 
	C465.874176,603.407104 465.991150,591.423279 465.991150,578.508240 
	C467.811646,579.472473 469.157776,580.185425 470.863312,581.045349 
z"/>
<path fill="#FAFAFA" opacity="1.000000" stroke="none" 
	d="
M465.991089,669.005859 
	C465.991089,663.747681 465.991089,658.988403 465.991089,653.458008 
	C478.410797,660.098267 490.222412,666.345459 501.921082,672.797485 
	C502.854828,673.312439 503.444092,675.238403 503.456268,676.515686 
	C503.570648,688.480835 503.524139,700.447449 503.524139,713.005432 
	C502.114105,712.452759 500.937469,712.119263 499.881836,711.558105 
	C489.637268,706.112366 479.462219,700.532715 469.146423,695.226379 
	C466.737610,693.987244 465.833649,692.667847 465.919861,689.948181 
	C466.135651,683.139771 465.991089,676.319885 465.991089,669.005859 
z"/>
<path fill="#FAFAFA" opacity="1.000000" stroke="none" 
	d="
M390.991089,573.850952 
	C390.998352,563.062744 391.002808,552.755676 391.028076,542.448730 
	C391.028748,542.178955 391.256378,541.909729 391.550049,541.259949 
	C403.240479,547.504089 414.918762,553.680237 426.498840,560.035339 
	C427.505219,560.587585 428.423676,562.312927 428.437561,563.504333 
	C428.578918,575.632629 428.523956,587.763062 428.523956,600.524963 
	C427.050171,599.921326 425.892365,599.557007 424.837830,598.997986 
	C415.466125,594.029663 406.257568,588.722778 396.691010,584.166321 
	C392.090942,581.975281 390.058044,579.261353 390.991089,573.850952 
z"/>
<path fill="#FDFDFE" opacity="1.000000" stroke="none" 
	d="
M648.484192,952.658936 
	C653.492981,962.084839 653.461304,971.520325 650.153381,980.999756 
	C648.253235,986.444885 644.371704,989.797485 638.345703,990.282532 
	C632.054810,990.788940 627.087402,988.499207 624.219055,982.906494 
	C619.255737,973.229004 619.185059,963.201294 624.390198,953.704041 
	C629.432556,944.503723 641.173828,944.084900 648.484192,952.658936 
z"/>
<path fill="#FDFDFE" opacity="1.000000" stroke="none" 
	d="
M727.726318,990.733215 
	C726.707947,990.400330 726.046265,990.241272 725.461731,989.935120 
	C717.553528,985.792908 715.991577,978.436401 715.825317,970.498108 
	C715.644348,961.861511 715.881836,953.178833 724.400024,947.954041 
	C731.057617,943.870605 739.561035,946.270752 743.171143,953.478699 
	C748.245605,963.610718 748.130127,974.070496 742.964050,984.163513 
	C739.931519,990.088318 734.476685,991.739624 727.726318,990.733215 
z"/>
<path fill="#FDFDFE" opacity="1.000000" stroke="none" 
	d="
M810.245422,976.283752 
	C810.430969,969.909485 810.057068,963.838745 811.156372,958.047791 
	C812.545654,950.729004 818.217773,946.329773 824.659363,946.090515 
	C831.162048,945.848999 836.574890,949.923889 838.921204,957.165344 
	C841.342957,964.639771 841.418518,972.206909 839.015686,979.726746 
	C836.606873,987.265137 831.874207,991.058838 825.049927,991.033081 
	C818.397644,991.007935 813.393677,986.920776 811.093567,979.608154 
	C810.794617,978.657654 810.588989,977.677795 810.245422,976.283752 
z"/>
<path fill="#FDFDFD" opacity="1.000000" stroke="none" 
	d="
M375.578491,989.776001 
	C365.702240,983.214050 365.450653,973.427307 366.578186,963.711304 
	C367.104828,959.173218 369.034058,954.181641 371.886993,950.658386 
	C377.764069,943.400574 388.932953,944.673401 393.394867,952.909180 
	C398.910645,963.090393 398.727631,973.798706 393.574158,984.069702 
	C390.242920,990.708984 383.920624,992.454102 375.578491,989.776001 
z"/>
<path fill="#FDFDFD" opacity="1.000000" stroke="none" 
	d="
M315.992920,1059.918701 
	C323.960144,1059.999023 328.440399,1064.332642 330.812134,1070.922729 
	C333.547882,1078.524170 333.345978,1086.258179 330.268311,1093.784302 
	C327.693970,1100.079590 322.911713,1103.521118 316.103363,1103.774170 
	C309.655884,1104.013794 303.953278,1100.135620 301.508270,1093.689575 
	C298.516693,1085.802734 298.385773,1077.743896 301.486053,1069.854858 
	C303.952881,1063.577881 308.552826,1059.945190 315.992920,1059.918701 
z"/>
<path fill="#FDFDFD" opacity="1.000000" stroke="none" 
	d="
M600.920288,1084.010742 
	C603.769958,1083.452026 606.194946,1082.926880 608.624573,1082.400635 
	C611.131409,1097.922485 601.354431,1107.493286 587.601624,1103.127197 
	C583.547180,1101.839966 581.045898,1099.460083 580.896179,1094.935791 
	C580.743042,1090.310791 583.392395,1087.638794 587.291626,1086.506714 
	C591.570618,1085.264404 596.084290,1084.830444 600.920288,1084.010742 
z"/>
<path fill="#FDFDFE" opacity="1.000000" stroke="none" 
	d="
M387.874908,1061.796143 
	C399.042603,1067.931763 399.665558,1089.606079 392.138855,1098.348877 
	C384.425781,1107.307983 369.669769,1104.906494 365.078888,1093.682861 
	C362.012024,1086.185059 361.934540,1078.404907 364.774689,1070.795044 
	C368.436188,1060.984375 377.302979,1057.499878 387.874908,1061.796143 
z"/>
<path fill="#FDFDFE" opacity="1.000000" stroke="none" 
	d="
M448.301605,1060.175781 
	C458.251770,1063.736084 463.571411,1073.585083 461.645844,1085.421753 
	C460.971527,1089.566772 459.587616,1093.969727 457.267090,1097.402588 
	C450.644104,1107.200562 435.489563,1105.519287 430.150513,1094.661499 
	C426.923157,1088.098145 426.949341,1081.066650 428.389130,1074.163330 
	C430.557465,1063.767090 436.756958,1059.515503 448.301605,1060.175781 
z"/>
<path fill="#FDFDFE" opacity="1.000000" stroke="none" 
	d="
M789.811646,1103.399414 
	C783.429321,1102.134521 779.821167,1098.262573 777.817261,1092.777588 
	C775.023926,1085.131958 775.100220,1077.377197 778.223694,1069.908447 
	C780.865356,1063.591553 785.660461,1059.931885 792.886292,1059.889648 
	C800.062927,1059.847656 805.039978,1063.259644 807.768799,1069.583130 
	C811.357422,1077.898926 811.267029,1086.450439 807.535583,1094.738525 
	C804.532104,1101.409912 798.552063,1104.267578 789.811646,1103.399414 
z"/>
<path fill="#FDFDFD" opacity="1.000000" stroke="none" 
	d="
M711.261841,1084.590332 
	C711.900696,1079.589966 711.997314,1074.830688 713.399536,1070.493530 
	C715.664429,1063.488037 721.139771,1059.974731 728.093933,1059.920288 
	C735.414551,1059.862915 740.767578,1063.375977 743.494324,1070.342407 
	C746.253113,1077.390503 746.470093,1084.576538 744.051025,1091.798584 
	C741.469421,1099.505981 735.596680,1103.952881 728.170349,1103.804443 
	C720.731079,1103.655640 715.265930,1099.455322 712.821655,1091.814697 
	C712.117615,1089.613770 711.800293,1087.289062 711.261841,1084.590332 
z"/>
</svg>